<?xml version="1.0" encoding="UTF-8" standalone="yes"?><svg xmlns="http://www.w3.org/2000/svg" xmlns:xlink="http://www.w3.org/1999/xlink" height="596px" style="width:593px;height:596px;" version="1.1" viewBox="0 0 593 596" width="593px"><defs><filter height="300%" id="f39cxxz" width="300%" x="-1" y="-1"><feGaussianBlur result="blurOut" stdDeviation="2.0"/><feColorMatrix in="blurOut" result="blurOut2" type="matrix" values="0 0 0 0 0 0 0 0 0 0 0 0 0 0 0 0 0 0 .4 0"/><feOffset dx="4.0" dy="4.0" in="blurOut2" result="blurOut3"/><feBlend in="SourceGraphic" in2="blurOut3" mode="normal"/></filter></defs><g><!--class Game--><rect fill="#FEFECE" filter="url(#f39cxxz)" height="99.8203" style="stroke: #A80036; stroke-width: 1.5;" width="72" x="120" y="8"/><ellipse cx="137.7" cy="24" fill="#ADD1B2" rx="11" ry="11" style="stroke: #A80036; stroke-width: 1.0;"/><path d="M140.6731,29.6431 Q140.0921,29.9419 139.4529,30.0913 Q138.8138,30.2407 138.1082,30.2407 Q135.6014,30.2407 134.2815,28.5889 Q132.9617,26.937 132.9617,23.8159 Q132.9617,20.6865 134.2815,19.0347 Q135.6014,17.3828 138.1082,17.3828 Q138.8138,17.3828 139.4612,17.5322 Q140.1087,17.6816 140.6731,17.9805 L140.6731,20.7031 Q140.0423,20.1221 139.4488,19.8523 Q138.8553,19.5825 138.2244,19.5825 Q136.8797,19.5825 136.1949,20.6492 Q135.5101,21.7158 135.5101,23.8159 Q135.5101,25.9077 136.1949,26.9744 Q136.8797,28.041 138.2244,28.041 Q138.8553,28.041 139.4488,27.7712 Q140.0423,27.5015 140.6731,26.9204 Z "/><text fill="#000000" font-family="sans-serif" font-size="12" lengthAdjust="spacingAndGlyphs" textLength="34" x="152.3" y="28.5352">Game</text><line style="stroke: #A80036; stroke-width: 1.5;" x1="121" x2="191" y1="40" y2="40"/><line style="stroke: #A80036; stroke-width: 1.5;" x1="121" x2="191" y1="48" y2="48"/><ellipse cx="131" cy="59.9775" fill="#84BE84" rx="3" ry="3" style="stroke: #038048; stroke-width: 1.0;"/><text fill="#000000" font-family="sans-serif" font-size="11" lengthAdjust="spacingAndGlyphs" textLength="25" x="140" y="62.6348">init()</text><ellipse cx="131" cy="72.9326" fill="#84BE84" rx="3" ry="3" style="stroke: #038048; stroke-width: 1.0;"/><text fill="#000000" font-family="sans-serif" font-size="11" lengthAdjust="spacingAndGlyphs" textLength="45" x="140" y="75.5898">update()</text><ellipse cx="131" cy="85.8877" fill="#84BE84" rx="3" ry="3" style="stroke: #038048; stroke-width: 1.0;"/><text fill="#000000" font-family="sans-serif" font-size="11" lengthAdjust="spacingAndGlyphs" textLength="44" x="140" y="88.5449">render()</text><ellipse cx="131" cy="98.8428" fill="#84BE84" rx="3" ry="3" style="stroke: #038048; stroke-width: 1.0;"/><text fill="#000000" font-family="sans-serif" font-size="11" lengthAdjust="spacingAndGlyphs" textLength="46" x="140" y="101.5">release()</text><!--class Tetris--><rect fill="#FEFECE" filter="url(#f39cxxz)" height="99.8203" style="stroke: #A80036; stroke-width: 1.5;" width="141" x="85.5" y="168"/><ellipse cx="135.25" cy="184" fill="#ADD1B2" rx="11" ry="11" style="stroke: #A80036; stroke-width: 1.0;"/><path d="M138.2231,189.6431 Q137.6421,189.9419 137.0029,190.0913 Q136.3638,190.2407 135.6582,190.2407 Q133.1514,190.2407 131.8315,188.5889 Q130.5117,186.937 130.5117,183.8159 Q130.5117,180.6865 131.8315,179.0347 Q133.1514,177.3828 135.6582,177.3828 Q136.3638,177.3828 137.0112,177.5322 Q137.6587,177.6816 138.2231,177.9805 L138.2231,180.7031 Q137.5923,180.1221 136.9988,179.8523 Q136.4053,179.5825 135.7744,179.5825 Q134.4297,179.5825 133.7449,180.6492 Q133.0601,181.7158 133.0601,183.8159 Q133.0601,185.9077 133.7449,186.9744 Q134.4297,188.041 135.7744,188.041 Q136.4053,188.041 136.9988,187.7712 Q137.5923,187.5015 138.2231,186.9204 Z "/><text fill="#000000" font-family="sans-serif" font-size="12" lengthAdjust="spacingAndGlyphs" textLength="33" x="155.75" y="188.5352">Tetris</text><line style="stroke: #A80036; stroke-width: 1.5;" x1="86.5" x2="225.5" y1="200" y2="200"/><rect fill="none" height="6" style="stroke: #C82930; stroke-width: 1.0;" width="6" x="93.5" y="208.9775"/><text fill="#000000" font-family="sans-serif" font-size="11" lengthAdjust="spacingAndGlyphs" textLength="115" x="105.5" y="214.6348">tetromino: Tetromino</text><rect fill="none" height="6" style="stroke: #C82930; stroke-width: 1.0;" width="6" x="93.5" y="221.9326"/><text fill="#000000" font-family="sans-serif" font-size="11" lengthAdjust="spacingAndGlyphs" textLength="81" x="105.5" y="227.5898">tetrion: Tetrion</text><rect fill="none" height="6" style="stroke: #C82930; stroke-width: 1.0;" width="6" x="93.5" y="234.8877"/><text fill="#000000" font-family="sans-serif" font-size="11" lengthAdjust="spacingAndGlyphs" textLength="62" x="105.5" y="240.5449">stack: Stack</text><rect fill="none" height="6" style="stroke: #C82930; stroke-width: 1.0;" width="6" x="93.5" y="247.8428"/><text fill="#000000" font-family="sans-serif" font-size="11" lengthAdjust="spacingAndGlyphs" textLength="100" x="105.5" y="253.5">console: Console *</text><line style="stroke: #A80036; stroke-width: 1.5;" x1="86.5" x2="225.5" y1="259.8203" y2="259.8203"/><!--class Tetromino--><rect fill="#FEFECE" filter="url(#f39cxxz)" height="125.7305" style="stroke: #A80036; stroke-width: 1.5;" width="145" x="231.5" y="462"/><ellipse cx="270.8" cy="478" fill="#ADD1B2" rx="11" ry="11" style="stroke: #A80036; stroke-width: 1.0;"/><path d="M273.7731,483.6431 Q273.1921,483.9419 272.5529,484.0913 Q271.9138,484.2407 271.2082,484.2407 Q268.7014,484.2407 267.3815,482.5889 Q266.0617,480.937 266.0617,477.8159 Q266.0617,474.6865 267.3815,473.0347 Q268.7014,471.3828 271.2082,471.3828 Q271.9138,471.3828 272.5612,471.5322 Q273.2087,471.6816 273.7731,471.9805 L273.7731,474.7031 Q273.1423,474.1221 272.5488,473.8523 Q271.9553,473.5825 271.3244,473.5825 Q269.9797,473.5825 269.2949,474.6492 Q268.6101,475.7158 268.6101,477.8159 Q268.6101,479.9077 269.2949,480.9744 Q269.9797,482.041 271.3244,482.041 Q271.9553,482.041 272.5488,481.7712 Q273.1423,481.5015 273.7731,480.9204 Z "/><text fill="#000000" font-family="sans-serif" font-size="12" lengthAdjust="spacingAndGlyphs" textLength="59" x="290.2" y="482.5352">Tetromino</text><line style="stroke: #A80036; stroke-width: 1.5;" x1="232.5" x2="375.5" y1="494" y2="494"/><rect fill="none" height="6" style="stroke: #C82930; stroke-width: 1.0;" width="6" x="239.5" y="502.9775"/><text fill="#000000" font-family="sans-serif" font-size="11" lengthAdjust="spacingAndGlyphs" textLength="97" x="251.5" y="508.6348">color: enum Color</text><rect fill="none" height="6" style="stroke: #C82930; stroke-width: 1.0;" width="6" x="239.5" y="515.9326"/><text fill="#000000" font-family="sans-serif" font-size="11" lengthAdjust="spacingAndGlyphs" textLength="88" x="251.5" y="521.5898">type: enum Type</text><line style="stroke: #A80036; stroke-width: 1.5;" x1="232.5" x2="375.5" y1="527.9102" y2="527.9102"/><ellipse cx="242.5" cy="539.8877" fill="#84BE84" rx="3" ry="3" style="stroke: #038048; stroke-width: 1.0;"/><text fill="#000000" font-family="sans-serif" font-size="11" lengthAdjust="spacingAndGlyphs" textLength="119" x="251.5" y="542.5449">move(enum Direction)</text><ellipse cx="242.5" cy="552.8428" fill="#84BE84" rx="3" ry="3" style="stroke: #038048; stroke-width: 1.0;"/><text fill="#000000" font-family="sans-serif" font-size="11" lengthAdjust="spacingAndGlyphs" textLength="60" x="251.5" y="555.5">hardDrop()</text><ellipse cx="242.5" cy="565.7979" fill="#84BE84" rx="3" ry="3" style="stroke: #038048; stroke-width: 1.0;"/><text fill="#000000" font-family="sans-serif" font-size="11" lengthAdjust="spacingAndGlyphs" textLength="30" x="251.5" y="568.4551">lock()</text><ellipse cx="242.5" cy="578.7529" fill="#84BE84" rx="3" ry="3" style="stroke: #038048; stroke-width: 1.0;"/><text fill="#000000" font-family="sans-serif" font-size="11" lengthAdjust="spacingAndGlyphs" textLength="40" x="251.5" y="581.4102">rotate()</text><!--class Tetrion--><rect fill="#FEFECE" filter="url(#f39cxxz)" height="48" style="stroke: #A80036; stroke-width: 1.5;" width="73" x="123.5" y="501"/><ellipse cx="138.5" cy="517" fill="#ADD1B2" rx="11" ry="11" style="stroke: #A80036; stroke-width: 1.0;"/><path d="M141.4731,522.6431 Q140.8921,522.9419 140.2529,523.0913 Q139.6138,523.2407 138.9082,523.2407 Q136.4014,523.2407 135.0815,521.5889 Q133.7617,519.937 133.7617,516.8159 Q133.7617,513.6865 135.0815,512.0347 Q136.4014,510.3828 138.9082,510.3828 Q139.6138,510.3828 140.2612,510.5322 Q140.9087,510.6816 141.4731,510.9805 L141.4731,513.7031 Q140.8423,513.1221 140.2488,512.8523 Q139.6553,512.5825 139.0244,512.5825 Q137.6797,512.5825 136.9949,513.6492 Q136.3101,514.7158 136.3101,516.8159 Q136.3101,518.9077 136.9949,519.9744 Q137.6797,521.041 139.0244,521.041 Q139.6553,521.041 140.2488,520.7712 Q140.8423,520.5015 141.4731,519.9204 Z "/><text fill="#000000" font-family="sans-serif" font-size="12" lengthAdjust="spacingAndGlyphs" textLength="41" x="152.5" y="521.5352">Tetrion</text><line style="stroke: #A80036; stroke-width: 1.5;" x1="124.5" x2="195.5" y1="533" y2="533"/><line style="stroke: #A80036; stroke-width: 1.5;" x1="124.5" x2="195.5" y1="541" y2="541"/><!--class Stack--><rect fill="#FEFECE" filter="url(#f39cxxz)" height="60.9551" style="stroke: #A80036; stroke-width: 1.5;" width="82" x="6" y="494.5"/><ellipse cx="30" cy="510.5" fill="#ADD1B2" rx="11" ry="11" style="stroke: #A80036; stroke-width: 1.0;"/><path d="M32.9731,516.1431 Q32.3921,516.4419 31.7529,516.5913 Q31.1138,516.7407 30.4082,516.7407 Q27.9014,516.7407 26.5815,515.0889 Q25.2617,513.437 25.2617,510.3159 Q25.2617,507.1865 26.5815,505.5347 Q27.9014,503.8828 30.4082,503.8828 Q31.1138,503.8828 31.7612,504.0322 Q32.4087,504.1816 32.9731,504.4805 L32.9731,507.2031 Q32.3423,506.6221 31.7488,506.3523 Q31.1553,506.0825 30.5244,506.0825 Q29.1797,506.0825 28.4949,507.1492 Q27.8101,508.2158 27.8101,510.3159 Q27.8101,512.4077 28.4949,513.4744 Q29.1797,514.541 30.5244,514.541 Q31.1553,514.541 31.7488,514.2712 Q32.3423,514.0015 32.9731,513.4204 Z "/><text fill="#000000" font-family="sans-serif" font-size="12" lengthAdjust="spacingAndGlyphs" textLength="30" x="46" y="515.0352">Stack</text><line style="stroke: #A80036; stroke-width: 1.5;" x1="7" x2="87" y1="526.5" y2="526.5"/><line style="stroke: #A80036; stroke-width: 1.5;" x1="7" x2="87" y1="534.5" y2="534.5"/><ellipse cx="17" cy="546.4775" fill="#84BE84" rx="3" ry="3" style="stroke: #038048; stroke-width: 1.0;"/><text fill="#000000" font-family="sans-serif" font-size="11" lengthAdjust="spacingAndGlyphs" textLength="56" x="26" y="549.1348">clearLine()</text><!--class Console--><rect fill="#FEFECE" filter="url(#f39cxxz)" height="60.9551" style="stroke: #A80036; stroke-width: 1.5;" width="77" x="397.5" y="334.5"/><ellipse cx="412.5" cy="350.5" fill="#ADD1B2" rx="11" ry="11" style="stroke: #A80036; stroke-width: 1.0;"/><path d="M415.4731,356.1431 Q414.8921,356.4419 414.2529,356.5913 Q413.6138,356.7407 412.9082,356.7407 Q410.4014,356.7407 409.0815,355.0889 Q407.7617,353.437 407.7617,350.3159 Q407.7617,347.1865 409.0815,345.5347 Q410.4014,343.8828 412.9082,343.8828 Q413.6138,343.8828 414.2612,344.0322 Q414.9087,344.1816 415.4731,344.4805 L415.4731,347.2031 Q414.8423,346.6221 414.2488,346.3523 Q413.6553,346.0825 413.0244,346.0825 Q411.6797,346.0825 410.9949,347.1492 Q410.3101,348.2158 410.3101,350.3159 Q410.3101,352.4077 410.9949,353.4744 Q411.6797,354.541 413.0244,354.541 Q413.6553,354.541 414.2488,354.2712 Q414.8423,354.0015 415.4731,353.4204 Z "/><text fill="#000000" font-family="sans-serif" font-size="12" lengthAdjust="spacingAndGlyphs" textLength="45" x="426.5" y="355.0352">Console</text><line style="stroke: #A80036; stroke-width: 1.5;" x1="398.5" x2="473.5" y1="366.5" y2="366.5"/><line style="stroke: #A80036; stroke-width: 1.5;" x1="398.5" x2="473.5" y1="374.5" y2="374.5"/><ellipse cx="408.5" cy="386.4775" fill="#84BE84" rx="3" ry="3" style="stroke: #038048; stroke-width: 1.0;"/><text fill="#000000" font-family="sans-serif" font-size="11" lengthAdjust="spacingAndGlyphs" textLength="44" x="417.5" y="389.1348">render()</text><!--class Imaginary--><rect fill="#FEFECE" filter="url(#f39cxxz)" height="73.9102" style="stroke: #A80036; stroke-width: 1.5;" width="117" x="245.5" y="328"/><ellipse cx="273.55" cy="344" fill="#ADD1B2" rx="11" ry="11" style="stroke: #A80036; stroke-width: 1.0;"/><path d="M276.5231,349.6431 Q275.9421,349.9419 275.3029,350.0913 Q274.6638,350.2407 273.9582,350.2407 Q271.4514,350.2407 270.1315,348.5889 Q268.8117,346.937 268.8117,343.8159 Q268.8117,340.6865 270.1315,339.0347 Q271.4514,337.3828 273.9582,337.3828 Q274.6638,337.3828 275.3112,337.5322 Q275.9587,337.6816 276.5231,337.9805 L276.5231,340.7031 Q275.8923,340.1221 275.2988,339.8523 Q274.7053,339.5825 274.0744,339.5825 Q272.7297,339.5825 272.0449,340.6492 Q271.3601,341.7158 271.3601,343.8159 Q271.3601,345.9077 272.0449,346.9744 Q272.7297,348.041 274.0744,348.041 Q274.7053,348.041 275.2988,347.7712 Q275.8923,347.5015 276.5231,346.9204 Z "/><text fill="#000000" font-family="sans-serif" font-size="12" lengthAdjust="spacingAndGlyphs" textLength="56" x="290.45" y="348.5352">Imaginary</text><line style="stroke: #A80036; stroke-width: 1.5;" x1="246.5" x2="361.5" y1="360" y2="360"/><polygon fill="none" points="256.5,366.9775,260.5,370.9775,256.5,374.9775,252.5,370.9775" style="stroke: #B38D22; stroke-width: 1.0;"/><text fill="#000000" font-family="sans-serif" font-size="11" lengthAdjust="spacingAndGlyphs" textLength="91" x="265.5" y="374.6348">playfield: Buffer *</text><line style="stroke: #A80036; stroke-width: 1.5;" x1="246.5" x2="361.5" y1="380.9551" y2="380.9551"/><ellipse cx="256.5" cy="392.9326" fill="#84BE84" rx="3" ry="3" style="stroke: #038048; stroke-width: 1.0;"/><text fill="#000000" font-family="sans-serif" font-size="11" lengthAdjust="spacingAndGlyphs" textLength="43" x="265.5" y="395.5898">sketch()</text><!--class Buffer--><rect fill="#FEFECE" filter="url(#f39cxxz)" height="99.8203" style="stroke: #A80036; stroke-width: 1.5;" width="173" x="411.5" y="475"/><ellipse cx="476.75" cy="491" fill="#ADD1B2" rx="11" ry="11" style="stroke: #A80036; stroke-width: 1.0;"/><path d="M479.7231,496.6431 Q479.1421,496.9419 478.5029,497.0913 Q477.8638,497.2407 477.1582,497.2407 Q474.6514,497.2407 473.3315,495.5889 Q472.0117,493.937 472.0117,490.8159 Q472.0117,487.6865 473.3315,486.0347 Q474.6514,484.3828 477.1582,484.3828 Q477.8638,484.3828 478.5112,484.5322 Q479.1587,484.6816 479.7231,484.9805 L479.7231,487.7031 Q479.0923,487.1221 478.4988,486.8523 Q477.9053,486.5825 477.2744,486.5825 Q475.9297,486.5825 475.2449,487.6492 Q474.5601,488.7158 474.5601,490.8159 Q474.5601,492.9077 475.2449,493.9744 Q475.9297,495.041 477.2744,495.041 Q477.9053,495.041 478.4988,494.7712 Q479.0923,494.5015 479.7231,493.9204 Z "/><text fill="#000000" font-family="sans-serif" font-size="12" lengthAdjust="spacingAndGlyphs" textLength="34" x="497.25" y="495.5352">Buffer</text><line style="stroke: #A80036; stroke-width: 1.5;" x1="412.5" x2="583.5" y1="507" y2="507"/><rect fill="none" height="6" style="stroke: #C82930; stroke-width: 1.0;" width="6" x="419.5" y="515.9775"/><text fill="#000000" font-family="sans-serif" font-size="11" lengthAdjust="spacingAndGlyphs" textLength="65" x="431.5" y="521.6348">front: bool *</text><rect fill="none" height="6" style="stroke: #C82930; stroke-width: 1.0;" width="6" x="419.5" y="528.9326"/><text fill="#000000" font-family="sans-serif" font-size="11" lengthAdjust="spacingAndGlyphs" textLength="63" x="431.5" y="534.5898">back: bool *</text><line style="stroke: #A80036; stroke-width: 1.5;" x1="412.5" x2="583.5" y1="540.9102" y2="540.9102"/><ellipse cx="422.5" cy="552.8877" fill="#84BE84" rx="3" ry="3" style="stroke: #038048; stroke-width: 1.0;"/><text fill="#000000" font-family="sans-serif" font-size="11" lengthAdjust="spacingAndGlyphs" textLength="25" x="431.5" y="555.5449">flip()</text><ellipse cx="422.5" cy="565.8428" fill="#84BE84" rx="3" ry="3" style="stroke: #038048; stroke-width: 1.0;"/><text fill="#000000" font-family="sans-serif" font-size="11" lengthAdjust="spacingAndGlyphs" textLength="147" x="431.5" y="568.5">setData(pos: int, data: bool)</text><!--class Component--><rect fill="#FEFECE" filter="url(#f39cxxz)" height="86.8652" style="stroke: #A80036; stroke-width: 1.5;" width="136" x="368" y="174.5"/><ellipse cx="400.1" cy="190.5" fill="#ADD1B2" rx="11" ry="11" style="stroke: #A80036; stroke-width: 1.0;"/><path d="M403.0731,196.1431 Q402.4921,196.4419 401.8529,196.5913 Q401.2138,196.7407 400.5082,196.7407 Q398.0014,196.7407 396.6815,195.0889 Q395.3617,193.437 395.3617,190.3159 Q395.3617,187.1865 396.6815,185.5347 Q398.0014,183.8828 400.5082,183.8828 Q401.2138,183.8828 401.8612,184.0322 Q402.5087,184.1816 403.0731,184.4805 L403.0731,187.2031 Q402.4423,186.6221 401.8488,186.3523 Q401.2553,186.0825 400.6244,186.0825 Q399.2797,186.0825 398.5949,187.1492 Q397.9101,188.2158 397.9101,190.3159 Q397.9101,192.4077 398.5949,193.4744 Q399.2797,194.541 400.6244,194.541 Q401.2553,194.541 401.8488,194.2712 Q402.4423,194.0015 403.0731,193.4204 Z "/><text fill="#000000" font-family="sans-serif" font-size="12" lengthAdjust="spacingAndGlyphs" textLength="66" x="417.9" y="195.0352">Component</text><line style="stroke: #A80036; stroke-width: 1.5;" x1="369" x2="503" y1="206.5" y2="206.5"/><polygon fill="none" points="379,213.4775,383,217.4775,379,221.4775,375,217.4775" style="stroke: #B38D22; stroke-width: 1.0;"/><text fill="#000000" font-family="sans-serif" font-size="11" lengthAdjust="spacingAndGlyphs" textLength="110" x="388" y="221.1348">position: Coordinate</text><polygon fill="none" points="379,226.4326,383,230.4326,379,234.4326,375,230.4326" style="stroke: #B38D22; stroke-width: 1.0;"/><text fill="#000000" font-family="sans-serif" font-size="11" lengthAdjust="spacingAndGlyphs" textLength="72" x="388" y="234.0898">size: Measure</text><polygon fill="none" points="379,239.3877,383,243.3877,379,247.3877,375,243.3877" style="stroke: #B38D22; stroke-width: 1.0;"/><text fill="#000000" font-family="sans-serif" font-size="11" lengthAdjust="spacingAndGlyphs" textLength="60" x="388" y="247.0449">data: void *</text><line style="stroke: #A80036; stroke-width: 1.5;" x1="369" x2="503" y1="253.3652" y2="253.3652"/><!--class Coordinate--><rect fill="#FEFECE" filter="url(#f39cxxz)" height="73.9102" style="stroke: #A80036; stroke-width: 1.5;" width="95" x="449.5" y="21"/><ellipse cx="464.5" cy="37" fill="#ADD1B2" rx="11" ry="11" style="stroke: #A80036; stroke-width: 1.0;"/><path d="M467.4731,42.6431 Q466.8921,42.9419 466.2529,43.0913 Q465.6138,43.2407 464.9082,43.2407 Q462.4014,43.2407 461.0815,41.5889 Q459.7617,39.937 459.7617,36.8159 Q459.7617,33.6865 461.0815,32.0347 Q462.4014,30.3828 464.9082,30.3828 Q465.6138,30.3828 466.2612,30.5322 Q466.9087,30.6816 467.4731,30.9805 L467.4731,33.7031 Q466.8423,33.1221 466.2488,32.8523 Q465.6553,32.5825 465.0244,32.5825 Q463.6797,32.5825 462.9949,33.6492 Q462.3101,34.7158 462.3101,36.8159 Q462.3101,38.9077 462.9949,39.9744 Q463.6797,41.041 465.0244,41.041 Q465.6553,41.041 466.2488,40.7712 Q466.8423,40.5015 467.4731,39.9204 Z "/><text fill="#000000" font-family="sans-serif" font-size="12" lengthAdjust="spacingAndGlyphs" textLength="63" x="478.5" y="41.5352">Coordinate</text><line style="stroke: #A80036; stroke-width: 1.5;" x1="450.5" x2="543.5" y1="53" y2="53"/><rect fill="none" height="6" style="stroke: #C82930; stroke-width: 1.0;" width="6" x="457.5" y="61.9775"/><text fill="#000000" font-family="sans-serif" font-size="11" lengthAdjust="spacingAndGlyphs" textLength="27" x="469.5" y="67.6348">x: int</text><rect fill="none" height="6" style="stroke: #C82930; stroke-width: 1.0;" width="6" x="457.5" y="74.9326"/><text fill="#000000" font-family="sans-serif" font-size="11" lengthAdjust="spacingAndGlyphs" textLength="26" x="469.5" y="80.5898">y: int</text><line style="stroke: #A80036; stroke-width: 1.5;" x1="450.5" x2="543.5" y1="86.9102" y2="86.9102"/><!--class Measure--><rect fill="#FEFECE" filter="url(#f39cxxz)" height="73.9102" style="stroke: #A80036; stroke-width: 1.5;" width="81" x="333.5" y="21"/><ellipse cx="348.5" cy="37" fill="#ADD1B2" rx="11" ry="11" style="stroke: #A80036; stroke-width: 1.0;"/><path d="M351.4731,42.6431 Q350.8921,42.9419 350.2529,43.0913 Q349.6138,43.2407 348.9082,43.2407 Q346.4014,43.2407 345.0815,41.5889 Q343.7617,39.937 343.7617,36.8159 Q343.7617,33.6865 345.0815,32.0347 Q346.4014,30.3828 348.9082,30.3828 Q349.6138,30.3828 350.2612,30.5322 Q350.9087,30.6816 351.4731,30.9805 L351.4731,33.7031 Q350.8423,33.1221 350.2488,32.8523 Q349.6553,32.5825 349.0244,32.5825 Q347.6797,32.5825 346.9949,33.6492 Q346.3101,34.7158 346.3101,36.8159 Q346.3101,38.9077 346.9949,39.9744 Q347.6797,41.041 349.0244,41.041 Q349.6553,41.041 350.2488,40.7712 Q350.8423,40.5015 351.4731,39.9204 Z "/><text fill="#000000" font-family="sans-serif" font-size="12" lengthAdjust="spacingAndGlyphs" textLength="49" x="362.5" y="41.5352">Measure</text><line style="stroke: #A80036; stroke-width: 1.5;" x1="334.5" x2="413.5" y1="53" y2="53"/><rect fill="none" height="6" style="stroke: #C82930; stroke-width: 1.0;" width="6" x="341.5" y="61.9775"/><text fill="#000000" font-family="sans-serif" font-size="11" lengthAdjust="spacingAndGlyphs" textLength="49" x="353.5" y="67.6348">width: int</text><rect fill="none" height="6" style="stroke: #C82930; stroke-width: 1.0;" width="6" x="341.5" y="74.9326"/><text fill="#000000" font-family="sans-serif" font-size="11" lengthAdjust="spacingAndGlyphs" textLength="54" x="353.5" y="80.5898">height: int</text><line style="stroke: #A80036; stroke-width: 1.5;" x1="334.5" x2="413.5" y1="86.9102" y2="86.9102"/><path d="M156,128.186 C156,128.186 156,167.992 156,167.992 " fill="none" style="stroke: #A80036; stroke-width: 1.0; stroke-dasharray: 7.0,7.0;"/><polygon fill="none" points="149,128.186,156,108.186,163,128.186,149,128.186" style="stroke: #A80036; stroke-width: 1.0;"/><path d="M206.5,281.015 C206.5,281.015 206.5,479 206.5,479 C206.5,479 218.356,479 218.356,479 " fill="none" style="stroke: #A80036; stroke-width: 1.0;"/><polygon fill="#A80036" points="231.356,479,222.356,475,226.356,479,222.356,483,231.356,479" style="stroke: #A80036; stroke-width: 1.0;"/><line style="stroke: #A80036; stroke-width: 1.0;" x1="226.356" x2="218.356" y1="479" y2="479"/><polygon fill="#A80036" points="206.5,268.015,202.5,274.015,206.5,280.015,210.5,274.015,206.5,268.015" style="stroke: #A80036; stroke-width: 1.0;"/><path d="M147.833,281.008 C147.833,281.008 147.833,487.626 147.833,487.626 " fill="none" style="stroke: #A80036; stroke-width: 1.0;"/><polygon fill="#A80036" points="147.833,500.6265,151.833,491.6265,147.833,495.6265,143.833,491.6265,147.833,500.6265" style="stroke: #A80036; stroke-width: 1.0;"/><line style="stroke: #A80036; stroke-width: 1.0;" x1="147.833" x2="147.833" y1="495.6265" y2="487.626"/><polygon fill="#A80036" points="147.833,268.008,143.833,274.008,147.833,280.008,151.833,274.008,147.833,268.008" style="stroke: #A80036; stroke-width: 1.0;"/><path d="M105.75,281.008 C105.75,281.008 105.75,525 105.75,525 C105.75,525 101.1231,525 101.1231,525 " fill="none" style="stroke: #A80036; stroke-width: 1.0;"/><polygon fill="#A80036" points="88.1231,525,97.1231,529,93.1231,525,97.1231,521,88.1231,525" style="stroke: #A80036; stroke-width: 1.0;"/><line style="stroke: #A80036; stroke-width: 1.0;" x1="93.1231" x2="101.1231" y1="525" y2="524.9999"/><polygon fill="#A80036" points="105.75,268.008,101.75,274.008,105.75,280.008,109.75,274.008,105.75,268.008" style="stroke: #A80036; stroke-width: 1.0;"/><path d="M216.5,281.211 C216.5,281.211 216.5,298 216.5,298 C216.5,298 423.167,298 423.167,298 C423.167,298 423.167,321.245 423.167,321.245 " fill="none" style="stroke: #A80036; stroke-width: 1.0;"/><polygon fill="#A80036" points="423.167,334.245,427.167,325.245,423.167,329.245,419.167,325.245,423.167,334.245" style="stroke: #A80036; stroke-width: 1.0;"/><line style="stroke: #A80036; stroke-width: 1.0;" x1="423.167" x2="423.167" y1="329.245" y2="321.245"/><polygon fill="#FFFFFF" points="216.5,268.211,212.5,274.211,216.5,280.211,220.5,274.211,216.5,268.211" style="stroke: #A80036; stroke-width: 1.0;"/><path d="M304,422.109 C304,422.109 304,461.764 304,461.764 " fill="none" style="stroke: #A80036; stroke-width: 1.0;"/><polygon fill="none" points="297,422.109,304,402.109,311,422.109,297,422.109" style="stroke: #A80036; stroke-width: 1.0;"/><path d="M225.408,378 C225.408,378 172.167,378 172.167,378 C172.167,378 172.167,458.974 172.167,500.7259 " fill="none" style="stroke: #A80036; stroke-width: 1.0;"/><polygon fill="none" points="225.408,371,245.408,378,225.408,385,225.408,371" style="stroke: #A80036; stroke-width: 1.0;"/><path d="M225.399,353 C225.399,353 45.75,353 45.75,353 C45.75,353 45.75,444.777 45.75,494.2498 " fill="none" style="stroke: #A80036; stroke-width: 1.0;"/><polygon fill="none" points="225.399,346,245.399,353,225.399,360,225.399,346" style="stroke: #A80036; stroke-width: 1.0;"/><path d="M443,408.85 C443,408.85 443,461.732 443,461.732 " fill="none" style="stroke: #A80036; stroke-width: 1.0;"/><polygon fill="#A80036" points="443,474.732,447,465.732,443,469.732,439,465.732,443,474.732" style="stroke: #A80036; stroke-width: 1.0;"/><line style="stroke: #A80036; stroke-width: 1.0;" x1="443" x2="443" y1="469.732" y2="461.732"/><polygon fill="#A80036" points="443,395.85,439,401.85,443,407.85,447,401.85,443,395.85" style="stroke: #A80036; stroke-width: 1.0;"/><path d="M372.25,281.724 C372.25,281.724 372.25,355 372.25,355 C372.25,355 368.501,355 362.76,355 " fill="none" style="stroke: #A80036; stroke-width: 1.0;"/><polygon fill="none" points="365.25,281.724,372.25,261.724,379.25,281.724,365.25,281.724" style="stroke: #A80036; stroke-width: 1.0;"/><path d="M375.546,376 C375.546,376 387,376 387,376 C387,376 387,525 387,525 C387,525 398.359,525 398.359,525 " fill="none" style="stroke: #A80036; stroke-width: 1.0;"/><polygon fill="#A80036" points="411.359,525,402.359,521,406.359,525,402.359,529,411.359,525" style="stroke: #A80036; stroke-width: 1.0;"/><line style="stroke: #A80036; stroke-width: 1.0;" x1="406.359" x2="398.359" y1="525" y2="524.9999"/><polygon fill="#FFFFFF" points="362.546,376,368.546,380,374.546,376,368.546,372,362.546,376" style="stroke: #A80036; stroke-width: 1.0;"/><path d="M476.75,108.109 C476.75,108.109 476.75,161.279 476.75,161.279 " fill="none" style="stroke: #A80036; stroke-width: 1.0;"/><polygon fill="#A80036" points="476.75,174.279,480.75,165.279,476.75,169.279,472.75,165.279,476.75,174.279" style="stroke: #A80036; stroke-width: 1.0;"/><line style="stroke: #A80036; stroke-width: 1.0;" x1="476.75" x2="476.75" y1="169.279" y2="161.279"/><polygon fill="#A80036" points="476.75,95.109,472.75,101.109,476.75,107.109,480.75,101.109,476.75,95.109" style="stroke: #A80036; stroke-width: 1.0;"/><path d="M391.25,108.109 C391.25,108.109 391.25,161.279 391.25,161.279 " fill="none" style="stroke: #A80036; stroke-width: 1.0;"/><polygon fill="#A80036" points="391.25,174.279,395.25,165.279,391.25,169.279,387.25,165.279,391.25,174.279" style="stroke: #A80036; stroke-width: 1.0;"/><line style="stroke: #A80036; stroke-width: 1.0;" x1="391.25" x2="391.25" y1="169.279" y2="161.279"/><polygon fill="#A80036" points="391.25,95.109,387.25,101.109,391.25,107.109,395.25,101.109,391.25,95.109" style="stroke: #A80036; stroke-width: 1.0;"/><path d="M448.833,281.707 C448.833,281.707 448.833,334.282 448.833,334.282 " fill="none" style="stroke: #A80036; stroke-width: 1.0;"/><polygon fill="none" points="441.833,281.707,448.833,261.707,455.833,281.707,441.833,281.707" style="stroke: #A80036; stroke-width: 1.0;"/><path d="M489.25,281.66 C489.25,281.66 489.25,474.866 489.25,474.866 " fill="none" style="stroke: #A80036; stroke-width: 1.0;"/><polygon fill="none" points="482.25,281.66,489.25,261.66,496.25,281.66,482.25,281.66" style="stroke: #A80036; stroke-width: 1.0;"/></g></svg>