<?xml version="1.0" encoding="UTF-8" standalone="no"?><svg xmlns="http://www.w3.org/2000/svg" xmlns:xlink="http://www.w3.org/1999/xlink" contentScriptType="application/ecmascript" contentStyleType="text/css" height="890px" preserveAspectRatio="none" style="width:601px;height:890px;" version="1.1" viewBox="0 0 601 890"
    width="601px" zoomAndPan="magnify"><defs><filter height="300%" id="ffqt1op" width="300%" x="-1" y="-1"><feGaussianBlur result="blurOut" stdDeviation="2.0"/><feColorMatrix in="blurOut" result="blurOut2" type="matrix" values="0 0 0 0 0 0 0 0 0 0 0 0 0 0 0 0 0 0 .4 0"/><feOffset dx="4.0" dy="4.0" in="blurOut2" result="blurOut3"/><feBlend in="SourceGraphic" in2="blurOut3" mode="normal"/></filter></defs><g><!--class Tetris--><polygon fill="#FEFECE" filter="url(#ffqt1op)" points="189.5,8,189.5,8.3977,199.2333,7.4728,208.9667,7.2999,218.7,8.1372,228.4333,8.3433,238.1667,7.33,247.9,7.8905,257.6333,8.6521,267.3667,7.4388,277.1,8.2763,286.8333,7.9821,296.5667,7.8019,306.3,7.2932,316.0333,7.3255,325.7667,8.3935,335.5,8,336.1899,8,335.4627,17.8578,335.3444,27.7156,335.1668,37.5733,335.2618,47.4311,334.8071,57.2889,336.0327,67.1467,336.1061,77.0044,334.8249,86.8622,336.0802,96.72,335.367,106.5778,335.5,116.4355,335.5,117.0331,325.7667,115.8034,316.0333,115.8259,306.3,116.6449,296.5667,116.7263,286.8333,116.8108,277.1,116.9919,267.3667,116.1173,257.6333,117.1129,247.9,116.5583,238.1667,115.9717,228.4333,117.1454,218.7,116.0124,208.9667,116.3037,199.2333,116.9589,189.5,116.4355,188.8249,116.4355,189.0273,106.5778,189.9245,96.72,189.4924,86.8622,188.8911,77.0044,189.5839,67.1467,189.3134,57.2889,189.4199,47.4311,189.3978,37.5733,190.0483,27.7156,189.0474,17.8578,189.5,8" style="stroke: #A80036; stroke-width: 1.5;"/><polygon fill="#ADD1B2" points="252.9706,27.2158,252.1237,30.4542,250.3795,31.6207,248.4819,33.7835,246.5012,35.0476,242.8955,34.3241,239.4363,34.015,237.4317,33.5643,234.8865,31.8537,233.6236,28.874,232.519,27.0077,231.1025,24.493,231.5313,21.2446,233.4445,18.1857,236.0816,15.6631,238.3699,14.5582,240.3048,13.179,243.7928,13.6297,246.8371,14.2645,249.5727,16.0895,251.7482,18.7219,253.3019,20.1551,254.0108,22.949,253.4046,26.2718" style="stroke: #A80036; stroke-width: 1.0;"/><path d="M242.3125,17.5156 Q239.5781,17.5156 238.5,19.1406 Q237.3594,20.8594 237.3594,23.7813 Q237.3594,27.0781 238.5156,28.7813 Q239.5,30.2813 242.1094,30.2813 Q243.6875,30.2813 244.5625,29.4531 Q245.5469,28.5 245.6875,26.375 Q245.6875,26.0781 245.5156,25.9063 Q245.3906,25.75 245.1719,25.7344 Q243.9531,25.7344 243.7969,25.8594 Q243.625,26.0156 243.625,26.2813 Q243.5938,27.7656 242.9375,28.5781 Q242.3281,29.375 242.25,29.375 Q240.9219,29.375 240.1406,27.7813 Q239.3906,26.2344 239.3906,23.75 Q239.3906,21.125 240.3281,19.6719 Q241.1563,18.4219 242.4375,18.4219 Q242.4375,18.4219 242.7813,19.0469 Q243.4063,19.7188 243.5469,20.875 Q243.6563,21.4531 245.125,21.2344 Q245.6563,21.1563 245.625,20.7344 Q245.4531,19.2969 244.7344,18.4844 Q243.875,17.5156 242.3125,17.5156 Z "/><text fill="#000000" font-family="sans-serif" font-size="12" lengthAdjust="spacingAndGlyphs" textLength="31" x="263.25" y="29.6045">Tetris</text><path d="M190.5,40 L190.5,39.4818 L200.7857,39.1355 L211.0714,40.6798 L221.3571,39.6524 L231.6429,39.5031 L241.9286,39.8499 L252.2143,39.7546 L262.5,40.3795 L272.7857,40.127 L283.0714,40.0618 L293.3571,39.132 L303.6429,39.9244 L313.9286,39.077 L324.2143,39.5082 L334.5,40 " fill="#FEFECE" style="stroke: #A80036; stroke-width: 1.5;"/><polygon fill="none" points="197.5,50.0544,197.5,49.9752,198.7,50.0157,199.9,50.0288,201.1,49.93,202.3,50.1226,203.5,50.0544,203.2678,50.0544,203.3534,51.2544,203.3145,52.4544,203.5078,53.6544,203.5067,54.8544,203.5,56.0544,203.5,56.1068,202.3,56.062,201.1,56.027,199.9,56.2401,198.7,56.0869,197.5,56.0544,197.6169,56.0544,197.5795,54.8544,197.4478,53.6544,197.7135,52.4544,197.3723,51.2544,197.5,50.0544" style="stroke: #C82930; stroke-width: 1.0;"/><text fill="#000000" font-family="sans-serif" font-size="11" lengthAdjust="spacingAndGlyphs" textLength="107" x="209.5" y="56.6919">tetromino : Tetromino *</text><polygon fill="none" points="197.5,65.1633,197.5,64.9955,198.7,65.3171,199.9,64.9888,201.1,64.9281,202.3,65.3267,203.5,65.1633,203.4357,65.1633,203.2647,66.3633,203.6314,67.5633,203.616,68.7633,203.3767,69.9633,203.5,71.1633,203.5,71.1883,202.3,71.3211,201.1,71.2227,199.9,71.2076,198.7,71.1322,197.5,71.1633,197.7405,71.1633,197.3096,69.9633,197.7295,68.7633,197.3255,67.5633,197.3577,66.3633,197.5,65.1633" style="stroke: #C82930; stroke-width: 1.0;"/><text fill="#000000" font-family="sans-serif" font-size="11" lengthAdjust="spacingAndGlyphs" textLength="79" x="209.5" y="71.8008">tetrion : Tetrion *</text><polygon fill="none" points="197.5,80.2722,197.5,80.432,198.7,80.1849,199.9,80.1138,201.1,80.3741,202.3,80.4196,203.5,80.2722,203.6916,80.2722,203.4723,81.4722,203.332,82.6722,203.3637,83.8722,203.675,85.0722,203.5,86.2722,203.5,86.158,202.3,86.2732,201.1,86.0484,199.9,86.4207,198.7,86.1327,197.5,86.2722,197.6086,86.2722,197.3558,85.0722,197.6826,83.8722,197.3801,82.6722,197.4268,81.4722,197.5,80.2722" style="stroke: #C82930; stroke-width: 1.0;"/><text fill="#000000" font-family="sans-serif" font-size="11" lengthAdjust="spacingAndGlyphs" textLength="120" x="209.5" y="86.9097">console : TetrisConsole *</text><path d="M190.5,93.3267 L190.5,92.5704 L200.7857,92.3414 L211.0714,92.8696 L221.3571,93.8461 L231.6429,92.9124 L241.9286,92.9198 L252.2143,94.1716 L262.5,92.3291 L272.7857,93.7868 L283.0714,93.0116 L293.3571,94.2267 L303.6429,93.2001 L313.9286,93.9063 L324.2143,94.2119 L334.5,93.3267 " fill="#FEFECE" style="stroke: #A80036; stroke-width: 1.5;"/><polygon fill="#84BE84" points="203.345,107.0211,203.2378,107.7989,202.819,108.3542,202.1794,108.9831,201.4327,109.0444,200.748,109.239,199.9269,109.3037,199.2358,109.237,198.4834,108.8081,198.1804,108.1434,197.5884,107.3527,197.3393,106.6405,197.7328,105.8317,197.8206,105.1341,198.2547,104.6485,198.6,104.1557,199.1442,103.743,200.1337,103.5196,201.0032,103.5403,201.9827,103.7165,202.5111,104.1433,202.9217,104.6719,203.2006,105.5619,203.6005,106.4289" style="stroke: #038048; stroke-width: 1.0;"/><text fill="#000000" font-family="sans-serif" font-size="11" lengthAdjust="spacingAndGlyphs" textLength="69" x="209.5" y="110.0186">sketch() : void</text><!--class TetrisConsole--><polygon fill="#FEFECE" filter="url(#ffqt1op)" points="23,221.5,23,221.1194,32.9286,221.8695,42.8571,221.1451,52.7857,222.1143,62.7143,221.9248,72.6429,221.8394,82.5714,221.0905,92.5,221.3169,102.4286,222.005,112.3571,221.2445,122.2857,220.786,132.2143,221.1583,142.1429,221.6827,152.0714,221.4467,162,221.5,161.4194,221.5,162.3879,232.0181,161.6243,242.5363,161.6227,253.0544,162.2208,263.5726,161.2757,274.0907,162,284.6089,162,284.431,152.0714,285.326,142.1429,285.0518,132.2143,284.3477,122.2857,285.228,112.3571,284.3753,102.4286,285.1532,92.5,284.4231,82.5714,284.855,72.6429,285.2545,62.7143,284.9947,52.7857,284.4738,42.8571,285.0034,32.9286,284.8572,23,284.6089,23.1237,284.6089,23.4938,274.0907,23.6772,263.5726,22.4498,253.0544,23.3828,242.5363,22.3692,232.0181,23,221.5" style="stroke: #A80036; stroke-width: 1.5;"/><polygon fill="#B4A7E5" points="62.5983,240.4637,61.4088,242.0909,59.4557,244.7019,58.1816,247.387,55.3828,247.9762,53.1932,247.7947,49.9271,247.8987,47.4783,248.2146,45.1285,246.9296,44.0254,244.8402,42.6529,242.3505,41.6583,240.3177,41.6386,237.8286,41.3873,235.3917,41.8442,232.1906,43.6775,229.3981,46.7268,228.1703,48.6893,227.3572,51.0175,226.8833,53.7794,226.8044,56.526,227.6093,58.3453,228.7887,60.8096,231.0431,61.9568,233.4485,62.9151,236.2909,63.4697,238.2484" style="stroke: #A80036; stroke-width: 1.0;"/><path d="M49.6531,231.625 L49.6531,243.25 Q49.6531,243.5 49.8094,243.6563 Q49.95,243.7969 51.1688,243.7969 Q51.3719,243.7969 51.5125,243.6719 Q51.6844,243.5156 51.6844,243.25 L51.6844,231.5781 Q51.6844,231.3125 51.5125,231.1719 Q51.2938,230.9531 50.1688,231.0313 Q49.95,231.0313 49.8094,231.1875 Q49.6531,231.3438 49.6531,231.625 Z "/><text fill="#000000" font-family="sans-serif" font-size="12" font-style="italic" lengthAdjust="spacingAndGlyphs" textLength="76" x="69.05" y="243.1045">TetrisConsole</text><path d="M24,253.5 L24,252.9283 L33.7857,253.3483 L43.5714,252.7951 L53.3571,254.3047 L63.1429,253.3797 L72.9286,254.0074 L82.7143,254.4773 L92.5,253.1309 L102.2857,253.542 L112.0714,253.4647 L121.8571,253.9628 L131.6429,252.7706 L141.4286,254.4613 L151.2143,252.7818 L161,253.5 " fill="#FEFECE" style="stroke: #A80036; stroke-width: 1.5;"/><path d="M24,261.5 L24,261.9748 L33.7857,261.922 L43.5714,262.4817 L53.3571,262.2141 L63.1429,262.1282 L72.9286,261.3904 L82.7143,262.3675 L92.5,261.9278 L102.2857,262.3941 L112.0714,260.9741 L121.8571,261.2926 L131.6429,261.6227 L141.4286,262.4619 L151.2143,261.2761 L161,261.5 " fill="#FEFECE" style="stroke: #A80036; stroke-width: 1.5;"/><polygon fill="#84BE84" points="36.9889,275.4772,36.5251,276.0981,36.111,276.5158,35.6626,276.8374,35.0255,277.3371,34.0598,277.3779,33.1748,277.4083,32.319,277.1469,31.7295,276.2889,31.0479,275.6535,31.0295,274.6536,30.9949,273.6906,31.3405,272.907,31.664,272.4094,32.2841,272.2839,32.7708,271.8412,33.5059,271.7786,34.3165,271.6825,34.9937,271.56,35.4869,272.117,36.2875,272.5248,36.7155,273.2363,36.7146,273.7928,36.8488,274.4131,36.9382,275.2011" style="stroke: #038048; stroke-width: 1.0;"/><text fill="#000000" font-family="sans-serif" font-size="11" lengthAdjust="spacingAndGlyphs" textLength="113" x="43" y="278.1919">getKeyboardInput() : int</text><!--class Tetromino--><polygon fill="#FEFECE" filter="url(#ffqt1op)" points="197,176,197,176.2933,207.0769,176.6446,217.1538,175.3527,227.2308,175.4689,237.3077,175.4342,247.3846,175.3409,257.4615,175.2542,267.5385,175.456,277.6154,176.6316,287.6923,175.5203,297.7692,175.5331,307.8462,175.9465,317.9231,175.9549,328,176,328.7243,176,327.2867,186.2508,328.532,196.5016,328.3755,206.7524,327.9847,217.0033,328.2688,227.2541,327.2782,237.5049,327.4377,247.7557,328.3215,258.0065,328.2081,268.2573,327.7128,278.5081,328.0571,288.759,327.6922,299.0098,328.1741,309.2606,328.337,319.5114,328,329.7622,328,329.4043,317.9231,330.2528,307.8462,329.1178,297.7692,330.2139,287.6923,329.03,277.6154,329.946,267.5385,329.8612,257.4615,329.1081,247.3846,329.4478,237.3077,330.0717,227.2308,329.0647,217.1538,329.7924,207.0769,329.2761,197,329.7622,196.3308,329.7622,197.2707,319.5114,197.7353,309.2606,197.0443,299.0098,196.7597,288.759,197.4152,278.5081,196.3128,268.2573,197.1895,258.0065,197.5139,247.7557,197.7285,237.5049,197.4941,227.2541,197.2174,217.0033,197.1711,206.7524,196.2679,196.5016,196.6601,186.2508,197,176" style="stroke: #A80036; stroke-width: 1.5;"/><polygon fill="#ADD1B2" points="241.7064,195.374,240.2552,197.8509,237.8504,200.2199,235.9853,201.5453,233.5989,202.7248,230.4174,203.4695,226.8258,202.343,224.6666,201.2219,222.8335,198.8352,221.8042,196.2888,220.0778,193.8067,220.188,190.0369,221.4546,186.3818,223.8509,184.1622,226.352,182.3308,228.1578,181.2013,231.559,181.0046,234.1999,180.7265,236.9132,182.2225,238.3868,184.2419,241.3946,186.5944,242.2455,188.9777,242.0073,191.4514,242.3661,194.1121" style="stroke: #A80036; stroke-width: 1.0;"/><path d="M230.9125,185.5156 Q228.1781,185.5156 227.1,187.1406 Q225.9594,188.8594 225.9594,191.7813 Q225.9594,195.0781 227.1156,196.7813 Q228.1,198.2813 230.7094,198.2813 Q232.2875,198.2813 233.1625,197.4531 Q234.1469,196.5 234.2875,194.375 Q234.2875,194.0781 234.1156,193.9063 Q233.9906,193.75 233.7719,193.7344 Q232.5531,193.7344 232.3969,193.8594 Q232.225,194.0156 232.225,194.2813 Q232.1938,195.7656 231.5375,196.5781 Q230.9281,197.375 230.85,197.375 Q229.5219,197.375 228.7406,195.7813 Q227.9906,194.2344 227.9906,191.75 Q227.9906,189.125 228.9281,187.6719 Q229.7563,186.4219 231.0375,186.4219 Q231.0375,186.4219 231.3813,187.0469 Q232.0063,187.7188 232.1469,188.875 Q232.2563,189.4531 233.725,189.2344 Q234.2563,189.1563 234.225,188.7344 Q234.0531,187.2969 233.3344,186.4844 Q232.475,185.5156 230.9125,185.5156 Z "/><text fill="#000000" font-family="sans-serif" font-size="12" lengthAdjust="spacingAndGlyphs" textLength="56" x="249.65" y="197.6045">Tetromino</text><path d="M198,208 L198,207.6899 L207.9231,207.064 L217.8462,207.5352 L227.7692,208.394 L237.6923,208.0028 L247.6154,208.6414 L257.5385,208.6815 L267.4615,208.0282 L277.3846,208.1957 L287.3077,208.7395 L297.2308,208.1169 L307.1538,208.043 L317.0769,208.0119 L327,208 " fill="#FEFECE" style="stroke: #A80036; stroke-width: 1.5;"/><polygon fill="none" points="205,218.0544,205,218.2784,206.2,218.0219,207.4,217.9569,208.6,217.8939,209.8,218.1644,211,218.0544,211.0046,218.0544,211.0019,219.2544,211.0804,220.4544,210.7724,221.6544,210.9344,222.8544,211,224.0544,211,223.9613,209.8,223.8187,208.6,224.0099,207.4,223.8122,206.2,223.866,205,224.0544,204.7817,224.0544,205.0414,222.8544,204.8552,221.6544,204.8115,220.4544,204.7913,219.2544,205,218.0544" style="stroke: #C82930; stroke-width: 1.0;"/><text fill="#000000" font-family="sans-serif" font-size="11" lengthAdjust="spacingAndGlyphs" textLength="84" x="217" y="224.6919">color: enum Color</text><polygon fill="none" points="205,233.1633,205,233.3964,206.2,233.0906,207.4,233.0824,208.6,233.0771,209.8,233.2734,211,233.1633,211.1155,233.1633,211.1091,234.3633,211.0627,235.5633,210.8855,236.7633,211.0242,237.9633,211,239.1633,211,239.2761,209.8,239.2616,208.6,239.2092,207.4,239.2531,206.2,239.0333,205,239.1633,204.993,239.1633,204.9614,237.9633,204.896,236.7633,205.04,235.5633,204.8707,234.3633,205,233.1633" style="stroke: #C82930; stroke-width: 1.0;"/><text fill="#000000" font-family="sans-serif" font-size="11" lengthAdjust="spacingAndGlyphs" textLength="80" x="217" y="239.8008">type: enum Type</text><polygon fill="none" points="205,248.2722,205,248.2751,206.2,248.3751,207.4,248.029,208.6,248.3973,209.8,248.474,211,248.2722,211.1529,248.2722,210.8996,249.4722,210.8442,250.6722,211.031,251.8722,210.8328,253.0722,211,254.2722,211,254.3009,209.8,254.2225,208.6,254.2515,207.4,254.3787,206.2,254.0861,205,254.2722,204.833,254.2722,205.2258,253.0722,204.8936,251.8722,204.7588,250.6722,204.7786,249.4722,205,248.2722" style="stroke: #C82930; stroke-width: 1.0;"/><text fill="#000000" font-family="sans-serif" font-size="11" lengthAdjust="spacingAndGlyphs" text-decoration="underline" textLength="91" x="217" y="254.9097">library : dataType *</text><line style="stroke: #000000; stroke-width: 1.0;" x1="217" x2="308" y1="256.9097" y2="256.9097"/><path d="M198,261.3267 L198,260.9691 L207.9231,261.9306 L217.8462,260.4938 L227.7692,262.1619 L237.6923,262.2307 L247.6154,262.1858 L257.5385,260.7897 L267.4615,261.7939 L277.3846,260.6615 L287.3077,260.8802 L297.2308,261.613 L307.1538,261.8651 L317.0769,261.0797 L327,261.3267 " fill="#FEFECE" style="stroke: #A80036; stroke-width: 1.5;"/><polygon fill="#84BE84" points="210.996,274.9563,210.5019,275.7153,210.3104,276.2901,209.788,276.5559,209.2601,276.9688,208.7952,277.3049,208.162,277.3672,207.1963,277.4015,206.6135,276.8718,205.6833,276.4552,205.4179,275.8381,205.1596,274.9938,204.9319,274.2631,205.1336,273.4439,205.4962,272.4801,206.1348,272.2676,206.7654,271.716,207.4617,271.4474,208.0906,271.3223,208.7023,271.6095,209.3915,271.6999,210.0531,272.2099,210.5235,272.8563,210.8485,273.3339,211.1509,273.9812,211.1442,274.7524" style="stroke: #038048; stroke-width: 1.0;"/><text fill="#000000" font-family="sans-serif" font-size="11" lengthAdjust="spacingAndGlyphs" textLength="105" x="217" y="278.0186">move(enum Direction)</text><polygon fill="#84BE84" points="210.9124,290.0692,210.6906,290.8272,210.1884,291.2772,209.8507,292.0491,208.8385,292.4276,208.2446,292.4885,207.3959,292.4817,206.5163,292.0774,206.0099,291.5618,205.6363,291.1719,205.0128,290.3836,205.1729,289.6536,205.0374,288.9522,205.4357,288.0567,206.1241,287.327,206.7713,286.6819,207.5889,286.5712,208.5504,286.6058,209.2156,286.7102,209.7824,286.9248,210.1915,287.3136,210.5649,288.1333,210.7795,289.0504,211.0649,289.6229" style="stroke: #038048; stroke-width: 1.0;"/><text fill="#000000" font-family="sans-serif" font-size="11" lengthAdjust="spacingAndGlyphs" textLength="53" x="217" y="293.1274">hardDrop()</text><polygon fill="#84BE84" points="210.8139,305.2101,210.7999,305.8042,210.2994,306.3924,209.6851,306.9628,209.0959,307.2161,208.5804,307.6654,207.59,307.3882,206.8759,307.1982,205.9517,306.8824,205.6141,306.2208,205.1708,305.4362,204.8381,304.5736,205.2068,303.7235,205.5105,302.7096,206.2446,302.3795,206.6162,301.8627,207.5163,301.8032,208.138,301.7651,208.8747,301.5549,209.6859,301.9767,210.1364,302.5421,210.5888,303.0599,211.0031,303.7588,211.0971,304.8023" style="stroke: #038048; stroke-width: 1.0;"/><text fill="#000000" font-family="sans-serif" font-size="11" lengthAdjust="spacingAndGlyphs" textLength="27" x="217" y="308.2363">lock()</text><polygon fill="#84BE84" points="210.8635,320.5069,210.8233,321.0689,210.2473,321.8752,209.4035,322.1982,208.6552,322.6145,207.7078,322.555,207.1689,322.425,206.5362,322.3846,205.8574,321.8197,205.2832,321.1265,205.1654,320.5048,205.0339,319.9992,204.8902,319.4096,205.0743,318.6058,205.612,317.7987,206.2106,317.284,206.9397,317.077,207.6942,316.5893,208.5163,316.8151,209.0409,317.0165,209.7225,317.3414,210.3633,317.6079,210.8735,318.4301,210.8989,319.1191,210.8234,319.815" style="stroke: #038048; stroke-width: 1.0;"/><text fill="#000000" font-family="sans-serif" font-size="11" lengthAdjust="spacingAndGlyphs" textLength="36" x="217" y="323.3452">rotate()</text><!--class Tetrion--><polygon fill="#FEFECE" filter="url(#ffqt1op)" points="363,221.5,363,220.8031,372.7273,222.1317,382.4545,221.8858,392.1818,221.2933,401.9091,220.955,411.6364,222.209,421.3636,222.1487,431.0909,221.9513,440.8182,220.7735,450.5455,221.5392,460.2727,222.0839,470,221.5,469.2709,221.5,469.7091,232.0181,469.844,242.5363,469.7751,253.0544,469.9708,263.5726,469.5613,274.0907,470,284.6089,470,284.9723,460.2727,284.1405,450.5455,284.0133,440.8182,284.7773,431.0909,284.227,421.3636,284.6457,411.6364,284.6646,401.9091,284.4198,392.1818,285.2487,382.4545,284.3105,372.7273,284.2152,363,284.6089,362.7327,284.6089,362.8063,274.0907,363.4899,263.5726,362.916,253.0544,363.2324,242.5363,362.5497,232.0181,363,221.5" style="stroke: #A80036; stroke-width: 1.5;"/><polygon fill="#ADD1B2" points="405.885,240.186,404.1268,242.152,403.8119,244.6741,401.7249,245.4357,400.0619,246.6933,398.1403,248.2474,396.005,248.4241,392.7216,248.5899,389.7309,246.7258,387.8049,245.9264,385.1695,243.2171,383.4812,239.7318,383.2736,237.1737,384.3394,234.074,385.7731,231.1339,387.3818,228.5569,389.9339,227.1292,393.209,227.2005,396.6126,226.8099,399.5763,227.0407,401.4538,228.335,402.7781,230.7923,403.8653,232.6515,405.4702,234.9849,405.4541,237.7499" style="stroke: #A80036; stroke-width: 1.0;"/><path d="M394.2125,231.0156 Q391.4781,231.0156 390.4,232.6406 Q389.2594,234.3594 389.2594,237.2813 Q389.2594,240.5781 390.4156,242.2813 Q391.4,243.7813 394.0094,243.7813 Q395.5875,243.7813 396.4625,242.9531 Q397.4469,242 397.5875,239.875 Q397.5875,239.5781 397.4156,239.4063 Q397.2906,239.25 397.0719,239.2344 Q395.8531,239.2344 395.6969,239.3594 Q395.525,239.5156 395.525,239.7813 Q395.4938,241.2656 394.8375,242.0781 Q394.2281,242.875 394.15,242.875 Q392.8219,242.875 392.0406,241.2813 Q391.2906,239.7344 391.2906,237.25 Q391.2906,234.625 392.2281,233.1719 Q393.0563,231.9219 394.3375,231.9219 Q394.3375,231.9219 394.6813,232.5469 Q395.3063,233.2188 395.4469,234.375 Q395.5563,234.9531 397.025,234.7344 Q397.5563,234.6563 397.525,234.2344 Q397.3531,232.7969 396.6344,231.9844 Q395.775,231.0156 394.2125,231.0156 Z "/><text fill="#000000" font-family="sans-serif" font-size="12" lengthAdjust="spacingAndGlyphs" textLength="38" x="412.35" y="243.1045">Tetrion</text><path d="M364,253.5 L364,254.1035 L373.5455,254.2719 L383.0909,252.7138 L392.6364,254.2439 L402.1818,253.0458 L411.7273,254.0353 L421.2727,252.6971 L430.8182,253.8796 L440.3636,253.7515 L449.9091,252.8438 L459.4545,254.132 L469,253.5 " fill="#FEFECE" style="stroke: #A80036; stroke-width: 1.5;"/><path d="M364,261.5 L364,261.2079 L373.5455,261.5895 L383.0909,260.9393 L392.6364,261.6907 L402.1818,261.8571 L411.7273,261.3238 L421.2727,261.6389 L430.8182,260.8042 L440.3636,262.228 L449.9091,261.5777 L459.4545,261.4873 L469,261.5 " fill="#FEFECE" style="stroke: #A80036; stroke-width: 1.5;"/><polygon fill="#84BE84" points="377.0614,275.4258,376.4695,276.0099,376.002,276.749,375.3344,277.3249,374.5864,277.4368,373.8566,277.7312,373.1344,277.5426,372.6463,277.1761,371.7087,276.6772,371.592,276.0724,371.2283,275.2634,370.9969,274.5297,371.3194,273.6837,371.477,272.6675,372.2513,271.9588,372.874,271.6983,373.8266,271.5079,374.7502,271.6967,375.3627,271.6898,375.8388,271.9952,376.5467,272.8128,376.7325,273.8068,377.0266,274.6846" style="stroke: #038048; stroke-width: 1.0;"/><text fill="#000000" font-family="sans-serif" font-size="11" lengthAdjust="spacingAndGlyphs" textLength="81" x="383" y="278.1919">clearLine() : void</text><!--class TetrisComponent--><polygon fill="#FEFECE" filter="url(#ffqt1op)" points="286,405,286,404.5994,295.8,404.2662,305.6,404.9494,315.4,404.3733,325.2,404.8202,335,404.7536,344.8,404.7519,354.6,404.8956,364.4,404.6553,374.2,405.7255,384,405.6146,393.8,405.4572,403.6,404.5394,413.4,404.9712,423.2,405.4028,433,405,433.3052,405,433.0016,414.9038,433.0486,424.8076,433.5647,434.7114,432.7498,444.6152,432.5738,454.519,432.3,464.4229,432.7763,474.3267,432.8302,484.2305,433.0486,494.1343,433.5302,504.0381,432.6924,513.9419,433.5425,523.8457,433.4219,533.7495,433,543.6533,433,543.5636,423.2,544.3311,413.4,543.5957,403.6,543.654,393.8,544.2979,384,543.3855,374.2,543.5735,364.4,543.969,354.6,543.2087,344.8,543.0839,335,543.9759,325.2,543.3087,315.4,543.1547,305.6,543.7221,295.8,543.5128,286,543.6533,285.7307,543.6533,285.9401,533.7495,286.3457,523.8457,285.8937,513.9419,285.6858,504.0381,286.4892,494.1343,285.3128,484.2305,285.2562,474.3267,286.3945,464.4229,286.0183,454.519,285.9912,444.6152,286.1682,434.7114,286.2205,424.8076,285.6237,414.9038,286,405" style="stroke: #A80036; stroke-width: 1.5;"/><polygon fill="#ADD1B2" points="320.011,423.8135,318.937,426.182,318.2102,428.1186,315.9832,429.6454,313.468,431.4775,310.3663,431.6106,307.115,431.613,304.4708,431.4505,303.2824,429.5262,300.8448,427.6757,298.9764,424.3641,298.3618,420.7778,298.7342,417.8171,300.8314,414.6081,302.6854,412.9843,305.4615,410.1735,307.5633,409.6393,310.2567,410.2712,313.0693,409.9502,314.5674,411.8451,317.7365,413.1178,318.9975,416.1218,320.0515,418.3498,321.181,421.5254" style="stroke: #A80036; stroke-width: 1.0;"/><path d="M309.1125,414.5156 Q306.3781,414.5156 305.3,416.1406 Q304.1594,417.8594 304.1594,420.7813 Q304.1594,424.0781 305.3156,425.7813 Q306.3,427.2813 308.9094,427.2813 Q310.4875,427.2813 311.3625,426.4531 Q312.3469,425.5 312.4875,423.375 Q312.4875,423.0781 312.3156,422.9063 Q312.1906,422.75 311.9719,422.7344 Q310.7531,422.7344 310.5969,422.8594 Q310.425,423.0156 310.425,423.2813 Q310.3938,424.7656 309.7375,425.5781 Q309.1281,426.375 309.05,426.375 Q307.7219,426.375 306.9406,424.7813 Q306.1906,423.2344 306.1906,420.75 Q306.1906,418.125 307.1281,416.6719 Q307.9563,415.4219 309.2375,415.4219 Q309.2375,415.4219 309.5813,416.0469 Q310.2063,416.7188 310.3469,417.875 Q310.4563,418.4531 311.925,418.2344 Q312.4563,418.1563 312.425,417.7344 Q312.2531,416.2969 311.5344,415.4844 Q310.675,414.5156 309.1125,414.5156 Z "/><text fill="#000000" font-family="sans-serif" font-size="12" lengthAdjust="spacingAndGlyphs" textLength="96" x="325.45" y="426.6045">TetrisComponent</text><path d="M287,437 L287,437.6757 L296.6667,437.3451 L306.3333,436.8016 L316,437.1983 L325.6667,437.7414 L335.3333,436.4821 L345,437.0693 L354.6667,436.6959 L364.3333,436.9703 L374,437.1772 L383.6667,436.5545 L393.3333,437.0885 L403,436.9123 L412.6667,436.3719 L422.3333,437.235 L432,437 " fill="#FEFECE" style="stroke: #A80036; stroke-width: 1.5;"/><polygon fill="none" points="297,445.0544,297.0056,445.06,297.8287,445.8831,298.6135,446.668,299.3218,447.3762,300.0787,448.1332,301,449.0544,301.044,449.0985,300.0939,449.7483,299.4192,450.6737,298.6743,451.5287,297.9666,452.4211,297,453.0544,297.0806,453.1351,296.1904,452.2449,295.3179,451.3723,294.6671,450.7216,293.7969,449.8513,293,449.0544,292.8634,448.9178,293.8103,448.2647,294.6132,447.4677,295.2251,446.4795,296.1206,445.7751,297,445.0544" style="stroke: #B38D22; stroke-width: 1.0;"/><text fill="#000000" font-family="sans-serif" font-size="11" lengthAdjust="spacingAndGlyphs" textLength="95" x="306" y="453.6919">position: Coordinate</text><polygon fill="none" points="297,460.1633,297.0107,460.174,297.6628,460.8261,298.718,461.8813,299.3725,462.5358,300.1423,463.3057,301,464.1633,301.1331,464.2965,300.0314,464.7947,299.5376,465.901,298.4459,466.4093,297.6746,467.2379,297,468.1633,297.0353,468.1987,296.2895,467.4528,295.2416,466.405,294.5365,465.6999,293.9003,465.0636,293,464.1633,293.0038,464.1672,293.8273,463.3906,294.6801,462.6435,295.3293,461.6926,296.3123,461.0756,297,460.1633" style="stroke: #B38D22; stroke-width: 1.0;"/><text fill="#000000" font-family="sans-serif" font-size="11" lengthAdjust="spacingAndGlyphs" textLength="100" x="306" y="468.8008">container: Dimension</text><polygon fill="none" points="297,475.2722,296.8727,475.1449,297.7217,475.9939,298.6024,476.8746,299.5663,477.8385,300.0607,478.333,301,479.2722,301.1606,479.4328,300.3607,480.2329,299.4381,480.9104,298.5375,481.6097,297.8469,482.5191,297,483.2722,297.0082,483.2804,296.1032,482.3755,295.3162,481.5884,294.5186,480.7908,293.7546,480.0268,293,479.2722,293.0297,479.3019,293.7192,478.3914,294.6591,477.7313,295.4505,476.9227,296.3339,476.2061,297,475.2722" style="stroke: #B38D22; stroke-width: 1.0;"/><text fill="#000000" font-family="sans-serif" font-size="11" lengthAdjust="spacingAndGlyphs" textLength="79" x="306" y="483.9097">data: dataType *</text><path d="M287,490.3267 L287,490.5692 L296.6667,489.7095 L306.3333,489.6371 L316,490.8172 L325.6667,489.8914 L335.3333,490.8468 L345,489.719 L354.6667,490.5711 L364.3333,490.5877 L374,489.7502 L383.6667,489.361 L393.3333,491.0888 L403,490.7545 L412.6667,490.9698 L422.3333,490.7226 L432,490.3267 " fill="#FEFECE" style="stroke: #A80036; stroke-width: 1.5;"/><polygon fill="#FFFF44" points="297,498.3811,296.9315,498.3126,297.6927,499.0738,298.4964,499.8775,299.4772,500.8583,300.0387,501.4198,301,502.3811,301.0645,502.4457,300.0956,503.0767,299.5181,504.0992,298.4296,504.6107,297.9101,505.6912,297,506.3811,296.9895,506.3706,296.2749,505.656,295.2359,504.617,294.5246,503.9057,293.8259,503.207,293,502.3811,292.9005,502.2816,293.7507,501.5318,294.7322,500.9133,295.3013,499.8824,296.1344,499.1155,297,498.3811" style="stroke: #B38D22; stroke-width: 1.0;"/><text fill="#000000" font-family="sans-serif" font-size="11" lengthAdjust="spacingAndGlyphs" textLength="64" x="306" y="507.0186">getSize() : int</text><polygon fill="#FFFF44" points="297,513.49,296.9843,513.4743,297.7533,514.2433,298.7603,515.2503,299.2661,515.7561,300.3197,516.8097,301,517.49,301.0291,517.5191,300.0925,518.1825,299.5691,519.2591,298.633,519.923,297.8255,520.7155,297,521.49,297.1608,521.6508,296.0638,520.5538,295.232,519.722,294.6144,519.1043,293.8632,518.3532,293,517.49,293.1725,517.6625,293.7012,516.5912,294.5015,515.7915,295.5357,515.2257,296.1442,514.2341,297,513.49" style="stroke: #B38D22; stroke-width: 1.0;"/><text fill="#000000" font-family="sans-serif" font-size="11" lengthAdjust="spacingAndGlyphs" textLength="121" x="306" y="522.1274">getDataAt(int) : dataType</text><polygon fill="#FFFF44" points="297,528.5989,297.1492,528.7481,297.9634,529.5623,298.4488,530.0476,299.4559,531.0548,300.0469,531.6458,301,532.5989,300.9147,532.5136,300.1074,533.3063,299.5233,534.3222,298.6673,535.0662,297.662,535.6609,297,536.5989,297.1304,536.7293,296.3256,535.9244,295.4094,535.0082,294.5218,534.1206,293.9082,533.5071,293,532.5989,292.889,532.4879,293.8548,531.8537,294.5486,530.9474,295.4447,530.2436,296.1699,529.3687,297,528.5989" style="stroke: #B38D22; stroke-width: 1.0;"/><text fill="#000000" font-family="sans-serif" font-size="11" font-style="italic" lengthAdjust="spacingAndGlyphs" textLength="67" x="306" y="537.2363">update(): void</text><!--class Console--><polygon fill="#FEFECE" filter="url(#ffqt1op)" points="8.5,390,8.5,390.5798,18.3824,389.8535,28.2647,389.7835,38.1471,389.5922,48.0294,389.6505,57.9118,390.7453,67.7941,389.7031,77.6765,390.4278,87.5588,389.4326,97.4412,390.0181,107.3235,390.2127,117.2059,390.6092,127.0882,389.8946,136.9706,390.3454,146.8529,389.328,156.7353,390.6968,166.6176,389.3214,176.5,390,175.908,390,176.0676,399.9336,176.2098,409.8672,176.2959,419.8008,176.3314,429.7344,176.2779,439.668,176.5897,449.6016,176.3122,459.5352,176.9205,469.4688,176.1115,479.4023,176.251,489.3359,177.1385,499.2695,176.2845,509.2031,175.8143,519.1367,176.5613,529.0703,177.1877,539.0039,175.9215,548.9375,176.5,558.8711,176.5,558.689,166.6176,559.4527,156.7353,558.1916,146.8529,559.3193,136.9706,559.1088,127.0882,558.1418,117.2059,558.5478,107.3235,558.7929,97.4412,558.621,87.5588,558.496,77.6765,559.1963,67.7941,558.9682,57.9118,558.3306,48.0294,558.2519,38.1471,559.6014,28.2647,559.3735,18.3824,559.1409,8.5,558.8711,7.9549,558.8711,8.7545,548.9375,8.3989,539.0039,8.9373,529.0703,8.735,519.1367,9.1572,509.2031,8.0074,499.2695,7.9265,489.3359,8.6632,479.4023,8.8021,469.4688,7.8492,459.5352,7.8812,449.6016,8.7715,439.668,8.0591,429.7344,8.1479,419.8008,7.9907,409.8672,8.942,399.9336,8.5,390" style="stroke: #A80036; stroke-width: 1.5;"/><polygon fill="#ADD1B2" points="74.832,409.1248,74.501,411.7312,73.1708,413.3831,71.9445,414.9991,69.9026,416.0202,67.3963,416.4102,65.2708,417.1983,63.2382,416.8932,59.6176,416.072,56.6216,414.3788,55.3299,410.9165,54.4534,409.0574,53.5981,406.9239,53.3667,404.4806,53.9738,402.3887,55.862,400.0533,57.533,397.901,60.4941,395.7512,62.8535,395.6617,64.9609,394.5874,67.1383,395.8111,69.8666,396.8692,71.8794,398.514,73.6644,400.2356,75.0326,402.7763,76.3135,405.0282,75.9523,408.4594" style="stroke: #A80036; stroke-width: 1.0;"/><path d="M64.3125,399.5156 Q61.5781,399.5156 60.5,401.1406 Q59.3594,402.8594 59.3594,405.7813 Q59.3594,409.0781 60.5156,410.7813 Q61.5,412.2813 64.1094,412.2813 Q65.6875,412.2813 66.5625,411.4531 Q67.5469,410.5 67.6875,408.375 Q67.6875,408.0781 67.5156,407.9063 Q67.3906,407.75 67.1719,407.7344 Q65.9531,407.7344 65.7969,407.8594 Q65.625,408.0156 65.625,408.2813 Q65.5938,409.7656 64.9375,410.5781 Q64.3281,411.375 64.25,411.375 Q62.9219,411.375 62.1406,409.7813 Q61.3906,408.2344 61.3906,405.75 Q61.3906,403.125 62.3281,401.6719 Q63.1563,400.4219 64.4375,400.4219 Q64.4375,400.4219 64.7813,401.0469 Q65.4063,401.7188 65.5469,402.875 Q65.6563,403.4531 67.125,403.2344 Q67.6563,403.1563 67.625,402.7344 Q67.4531,401.2969 66.7344,400.4844 Q65.875,399.5156 64.3125,399.5156 Z "/><text fill="#000000" font-family="sans-serif" font-size="12" lengthAdjust="spacingAndGlyphs" textLength="47" x="85.25" y="411.6045">Console</text><path d="M9.5,422 L9.5,421.124 L19.2647,421.3392 L29.0294,421.4871 L38.7941,422.2041 L48.5588,421.9183 L58.3235,422.7408 L68.0882,422.31 L77.8529,421.2954 L87.6176,421.6678 L97.3824,421.9791 L107.1471,422.3014 L116.9118,421.2597 L126.6765,422.1993 L136.4412,422.8402 L146.2059,422.5941 L155.9706,421.9582 L165.7353,421.3769 L175.5,422 " fill="#FEFECE" style="stroke: #A80036; stroke-width: 1.5;"/><polygon fill="none" points="16.5,432.0544,16.5,432.182,17.7,431.8129,18.9,432.2065,20.1,432.0588,21.3,431.9386,22.5,432.0544,22.7182,432.0544,22.6597,433.2544,22.6334,434.4544,22.7043,435.6544,22.6646,436.8544,22.5,438.0544,22.5,437.8885,21.3,438.0168,20.1,438.0623,18.9,438.1763,17.7,437.8816,16.5,438.0544,16.3891,438.0544,16.5509,436.8544,16.3246,435.6544,16.4788,434.4544,16.591,433.2544,16.5,432.0544" style="stroke: #C82930; stroke-width: 1.0;"/><text fill="#000000" font-family="sans-serif" font-size="11" lengthAdjust="spacingAndGlyphs" text-decoration="underline" textLength="96" x="28.5" y="438.6919">instance : Console *</text><line style="stroke: #000000; stroke-width: 1.0;" x1="28.5" x2="124.5" y1="440.6919" y2="440.6919"/><polygon fill="none" points="16.5,447.1633,16.5,447.2993,17.7,447.182,18.9,447.1897,20.1,447.0878,21.3,447.2531,22.5,447.1633,22.6764,447.1633,22.4005,448.3633,22.6923,449.5633,22.6655,450.7633,22.4562,451.9633,22.5,453.1633,22.5,452.9256,21.3,453.3121,20.1,452.9452,18.9,452.9629,17.7,453.0625,16.5,453.1633,16.3278,453.1633,16.563,451.9633,16.2951,450.7633,16.6156,449.5633,16.4106,448.3633,16.5,447.1633" style="stroke: #C82930; stroke-width: 1.0;"/><text fill="#000000" font-family="sans-serif" font-size="11" lengthAdjust="spacingAndGlyphs" textLength="103" x="28.5" y="453.8008">container : Dimension</text><polygon fill="none" points="16.5,462.2722,16.5,462.2654,17.7,462.119,18.9,462.0809,20.1,462.18,21.3,462.4175,22.5,462.2722,22.2629,462.2722,22.5315,463.4722,22.4087,464.6722,22.3858,465.8722,22.633,467.0722,22.5,468.2722,22.5,468.2682,21.3,468.32,20.1,468.4711,18.9,468.0583,17.7,468.4439,16.5,468.2722,16.6642,468.2722,16.3072,467.0722,16.7146,465.8722,16.3807,464.6722,16.371,463.4722,16.5,462.2722" style="stroke: #C82930; stroke-width: 1.0;"/><text fill="#000000" font-family="sans-serif" font-size="11" lengthAdjust="spacingAndGlyphs" textLength="103" x="28.5" y="468.9097">buffer : DoubleBuffer</text><path d="M9.5,475.3267 L9.5,475.7366 L19.2647,475.8055 L29.0294,475.6743 L38.7941,474.9929 L48.5588,475.442 L58.3235,476.0031 L68.0882,474.9949 L77.8529,474.5635 L87.6176,475.2758 L97.3824,476.0154 L107.1471,474.6822 L116.9118,476.0666 L126.6765,475.5558 L136.4412,475.9584 L146.2059,474.7607 L155.9706,474.6399 L165.7353,474.7216 L175.5,475.3267 " fill="#FEFECE" style="stroke: #A80036; stroke-width: 1.5;"/><polygon fill="#84BE84" points="22.279,489.3416,21.9728,489.9178,21.7243,490.3982,21.0608,491.0335,20.5031,491.2342,19.8157,491.5246,19.2395,491.4132,18.2067,491.2495,17.6509,490.5728,17.0638,489.9728,16.538,489.2149,16.4245,488.42,16.6586,487.7888,16.7676,487.1396,17.3396,486.5514,17.9618,485.9763,18.5076,485.5201,19.4282,485.2354,20.1552,485.4737,20.7871,485.7259,21.543,486.2821,22.0655,486.6683,22.4571,487.2419,22.33,488.3137,22.251,489.1993" style="stroke: #038048; stroke-width: 1.0;"/><text fill="#000000" font-family="sans-serif" font-size="11" lengthAdjust="spacingAndGlyphs" text-decoration="underline" textLength="119" x="28.5" y="492.0186">getInstance() : Console *</text><line style="stroke: #000000; stroke-width: 1.0;" x1="28.5" x2="147.5" y1="494.0186" y2="494.0186"/><polygon fill="#84BE84" points="22.1995,504.4697,21.9182,505.3039,21.1753,505.9545,20.6796,506.2409,20.1495,506.3097,19.1792,506.3892,18.2764,506.2126,17.4731,505.6839,16.9553,505.3511,16.8587,504.5607,16.5574,503.8581,16.5436,503.236,16.651,502.646,16.9001,501.7507,17.7147,501.0989,18.3815,500.5676,19.0246,500.4267,19.926,500.373,20.6293,500.6799,21.1972,501.2391,21.9247,501.836,22.179,502.3614,22.3217,502.8834,22.647,503.6482" style="stroke: #038048; stroke-width: 1.0;"/><text fill="#000000" font-family="sans-serif" font-size="11" lengthAdjust="spacingAndGlyphs" textLength="80" x="28.5" y="507.1274">getKBInput() : int</text><polygon fill="#84BE84" points="22.2426,519.5452,22.0669,520.1658,21.4737,520.6092,20.9661,521.3625,20.3912,521.4749,19.6735,521.6292,19.1356,521.6086,18.6288,521.4246,17.9745,521.1469,17.3309,520.566,16.7286,519.9118,16.695,518.9172,16.6139,518.2619,16.8335,517.4017,17.0141,516.9102,17.4055,516.2654,18.2612,515.7046,19.0889,515.5471,20.0136,515.6976,20.6425,515.8851,21.31,516.1101,21.8298,516.5901,22.1604,517.5651,22.5841,518.3637,22.2973,519.3784" style="stroke: #038048; stroke-width: 1.0;"/><text fill="#000000" font-family="sans-serif" font-size="11" lengthAdjust="spacingAndGlyphs" textLength="70" x="28.5" y="522.2363">getWidth() : int</text><polygon fill="#84BE84" points="22.4997,534.3714,22.1495,535.382,21.7577,535.8802,20.9454,536.2956,20.1576,536.7804,19.2796,536.7015,18.6029,536.4365,17.8733,536.3204,17.4103,535.8877,16.6967,535.2065,16.5726,534.4418,16.3889,533.8225,16.6939,533.2434,16.8331,532.2402,17.2845,531.9156,17.6177,531.3711,18.2638,530.8866,19.2052,530.6332,20.2688,530.7299,20.8897,530.8877,21.4841,531.4651,21.8544,531.866,22.1834,532.3907,22.3281,533.0074,22.6673,533.5268,22.3927,534.3297" style="stroke: #038048; stroke-width: 1.0;"/><text fill="#000000" font-family="sans-serif" font-size="11" lengthAdjust="spacingAndGlyphs" textLength="142" x="28.5" y="537.3452">sketchAt(int, dataType) : void</text><polygon fill="#84BE84" points="22.3085,549.5144,21.9847,550.2306,21.5202,551.0631,20.7937,551.5305,19.81,551.7764,19.1372,551.6737,18.134,551.5452,17.3288,550.9928,16.9537,550.4598,16.7796,549.9353,16.4435,549.1588,16.5143,548.5961,16.6293,547.8373,17.2044,547.0839,17.6297,546.564,18.0501,545.991,18.9566,545.7137,19.9274,545.6704,20.7299,546.0515,21.3274,546.561,22.016,547.2,22.4588,547.8119,22.4488,548.8623" style="stroke: #038048; stroke-width: 1.0;"/><text fill="#000000" font-family="sans-serif" font-size="11" lengthAdjust="spacingAndGlyphs" textLength="69" x="28.5" y="552.4541">render() : void</text><!--class DoubleBuffer--><polygon fill="#FEFECE" filter="url(#ffqt1op)" points="24,619,24,618.4046,33.7857,619.1767,43.5714,618.9411,53.3571,618.9704,63.1429,619.4165,72.9286,619.504,82.7143,618.5396,92.5,618.868,102.2857,619.5658,112.0714,619.4618,121.8571,619.0625,131.6429,618.3444,141.4286,619.0799,151.2143,619.0743,161,619,160.5986,619,161.6014,628.8578,161.388,638.7156,161.656,648.5733,161.3147,658.4311,160.6689,668.2889,160.6552,678.1467,161.1567,688.0044,161.3717,697.8622,161.4609,707.72,161.3458,717.5778,161,727.4355,161,727.1753,151.2143,727.4558,141.4286,726.9996,131.6429,727.7164,121.8571,727.1801,112.0714,727.9681,102.2857,727.0916,92.5,727.4782,82.7143,727.526,72.9286,727.5201,63.1429,728.1786,53.3571,728.1667,43.5714,726.9125,33.7857,727.6119,24,727.4355,24.3346,727.4355,23.9972,717.5778,23.4222,707.72,23.6672,697.8622,24.2457,688.0044,23.459,678.1467,24.2618,668.2889,24.0066,658.4311,23.4254,648.5733,23.561,638.7156,24.1977,628.8578,24,619" style="stroke: #A80036; stroke-width: 1.5;"/><polygon fill="#ADD1B2" points="64.1336,638.7281,62.7101,640.9648,60.9964,643.066,58.3661,645.5319,55.0505,645.5206,51.297,646.2663,49.2235,644.2765,46.9335,643.5918,44.8429,641.7477,43.6797,639.8049,42.4444,636.0859,42.6764,632.684,44.3181,631.0183,45.1335,629.1227,47.1895,626.3766,49.4616,624.8326,52.2575,623.6126,54.9702,624.0342,57.9033,625.1512,60.4024,625.6307,62.343,628.2127,63.7375,630.7636,65.2243,633.2449,64.7062,637.0168" style="stroke: #A80036; stroke-width: 1.0;"/><path d="M53.4125,628.5156 Q50.6781,628.5156 49.6,630.1406 Q48.4594,631.8594 48.4594,634.7813 Q48.4594,638.0781 49.6156,639.7813 Q50.6,641.2813 53.2094,641.2813 Q54.7875,641.2813 55.6625,640.4531 Q56.6469,639.5 56.7875,637.375 Q56.7875,637.0781 56.6156,636.9063 Q56.4906,636.75 56.2719,636.7344 Q55.0531,636.7344 54.8969,636.8594 Q54.725,637.0156 54.725,637.2813 Q54.6938,638.7656 54.0375,639.5781 Q53.4281,640.375 53.35,640.375 Q52.0219,640.375 51.2406,638.7813 Q50.4906,637.2344 50.4906,634.75 Q50.4906,632.125 51.4281,630.6719 Q52.2563,629.4219 53.5375,629.4219 Q53.5375,629.4219 53.8813,630.0469 Q54.5063,630.7188 54.6469,631.875 Q54.7563,632.4531 56.225,632.2344 Q56.7563,632.1563 56.725,631.7344 Q56.5531,630.2969 55.8344,629.4844 Q54.975,628.5156 53.4125,628.5156 Z "/><text fill="#000000" font-family="sans-serif" font-size="12" lengthAdjust="spacingAndGlyphs" textLength="72" x="71.15" y="640.6045">DoubleBuffer</text><path d="M25,651 L25,651.1146 L34.6429,651.3561 L44.2857,651.8438 L53.9286,650.7521 L63.5714,651.8753 L73.2143,651.2872 L82.8571,651.5967 L92.5,650.6453 L102.1429,650.0332 L111.7857,650.2729 L121.4286,650.5548 L131.0714,650.7703 L140.7143,651.0327 L150.3571,651.7554 L160,651 " fill="#FEFECE" style="stroke: #A80036; stroke-width: 1.5;"/><polygon fill="none" points="37.7746,664.754,37.5365,665.4779,37.0782,666.3089,36.1285,666.7198,35.6597,667.1593,35.074,667.1957,34.2656,666.8324,33.4448,666.4479,32.8771,665.965,32.1528,665.4784,32.0772,664.694,32.0605,663.9455,32.068,663.2883,32.3408,662.3189,33.183,661.7836,33.9903,661.1583,34.7524,661.037,35.6293,661.1856,36.41,661.3376,37.0176,661.7853,37.5606,662.6245,38.0347,663.0838,37.8745,664.0223,37.7923,664.8722" style="stroke: #038048; stroke-width: 1.0;"/><text fill="#000000" font-family="sans-serif" font-size="11" lengthAdjust="spacingAndGlyphs" textLength="96" x="44" y="667.6919">front: SingleBuffer *</text><polygon fill="none" points="37.8784,679.8993,37.5214,680.8044,36.8289,681.4373,36.3165,681.7717,35.8172,682.2241,34.7539,682.0969,33.8367,681.7751,33.3563,681.4544,32.5513,681.0207,32.2819,680.1836,31.908,679.515,31.8405,678.7518,32.2319,678.2203,32.6804,677.301,33.2234,676.543,33.8351,676.2132,34.6218,676.3436,35.5411,676.3191,36.5652,676.4022,37.2018,677.0975,37.8429,677.8057,38.1279,678.5628,38.0888,679.4753" style="stroke: #038048; stroke-width: 1.0;"/><text fill="#000000" font-family="sans-serif" font-size="11" lengthAdjust="spacingAndGlyphs" textLength="96" x="44" y="682.8008">back: SingleBuffer *</text><path d="M25,689.2178 L25,689.3019 L34.6429,689.2997 L44.2857,690.0827 L53.9286,689.6807 L63.5714,689.2018 L73.2143,688.3801 L82.8571,689.8893 L92.5,690.0268 L102.1429,689.4743 L111.7857,688.6497 L121.4286,690.1035 L131.0714,688.9776 L140.7143,689.6689 L150.3571,688.6288 L160,689.2178 " fill="#FEFECE" style="stroke: #A80036; stroke-width: 1.5;"/><polygon fill="#84BE84" points="37.9443,702.9409,37.8174,703.5953,37.4297,704.0207,36.9397,704.704,36.154,704.9389,35.6401,705.1799,34.6439,705.3685,33.95,704.9222,33.0451,704.5439,32.5929,703.8153,31.9921,703.2003,31.9648,702.6383,31.9014,702.0737,32.129,701.0574,32.5264,700.5718,32.8819,700.1421,33.5646,699.7036,34.3667,699.392,35.0163,699.3768,35.8365,699.3637,36.5746,699.5834,37.2216,700.2052,37.5277,700.9539,38.004,701.7982,38.0808,702.3707" style="stroke: #038048; stroke-width: 1.0;"/><text fill="#000000" font-family="sans-serif" font-size="11" lengthAdjust="spacingAndGlyphs" textLength="51" x="44" y="705.9097">flip() : void</text><polygon fill="#84BE84" points="37.9343,718.1969,37.5516,718.6746,37.1718,719.6704,36.5112,719.7851,35.6658,720.2692,34.8188,720.2246,34.2486,720.466,33.7911,719.9473,33.2659,719.8341,32.6227,719.4453,32.1064,718.6582,31.948,717.6495,32.0668,716.6354,32.5443,715.782,32.9337,714.9773,33.7651,714.518,34.543,714.2444,35.4708,714.2847,36.2378,714.6752,36.892,715.193,37.6374,715.8944,37.7615,716.5885,38.1485,717.4131" style="stroke: #038048; stroke-width: 1.0;"/><text fill="#000000" font-family="sans-serif" font-size="11" lengthAdjust="spacingAndGlyphs" textLength="111" x="44" y="721.0186">isUnchanged(int) : bool</text><!--class SingleBuffer--><polygon fill="#FEFECE" filter="url(#ffqt1op)" points="6,787,6,787.3178,16.1765,787.5011,26.3529,787.3493,36.5294,786.3573,46.7059,786.4862,56.8824,787.6297,67.0588,787.1547,77.2353,787.6923,87.4118,786.6855,97.5882,786.4589,107.7647,786.8772,117.9412,786.6702,128.1176,786.5882,138.2941,787.1312,148.4706,787.3748,158.6471,787.6426,168.8235,787.135,179,787,178.2584,787,179.1573,797.3696,178.7161,807.7393,179.3667,818.1089,178.4111,828.4785,178.9252,838.8481,178.9646,849.2178,178.8911,859.5874,178.6282,869.957,179,880.3267,179,880.7429,168.8235,880.2959,158.6471,880.2583,148.4706,881.0723,138.2941,880.8308,128.1176,881.0534,117.9412,880.6002,107.7647,880.4353,97.5882,880.0063,87.4118,879.6894,77.2353,880.8885,67.0588,880.2149,56.8824,879.5853,46.7059,879.9556,36.5294,880.1355,26.3529,880.5983,16.1765,879.7052,6,880.3267,6.3401,880.3267,6.1354,869.957,6.2329,859.5874,5.5875,849.2178,5.7306,838.8481,5.7063,828.4785,5.9185,818.1089,5.5835,807.7393,6.1692,797.3696,6,787" style="stroke: #A80036; stroke-width: 1.5;"/><polygon fill="#ADD1B2" points="65.9099,805.9638,64.0763,809.2123,61.2972,811.0484,59.5797,812.6577,56.9377,814.0096,54.8132,814.5668,52.0394,814.0601,49.3823,812.5576,46.2745,810.8534,44.5563,808.2526,44.5389,804.8246,43.4851,802.2693,43.7152,799.8131,44.8505,797.3931,47.1661,795.3465,49.1128,793.9439,51.4491,792.571,54.0242,792.3482,57.0706,792.8321,59.3872,793.6773,61.1643,794.3163,63.1206,796.5521,64.7891,798.8231,65.49,800.6173,65.0911,804.0895" style="stroke: #A80036; stroke-width: 1.0;"/><path d="M54.3125,796.5156 Q51.5781,796.5156 50.5,798.1406 Q49.3594,799.8594 49.3594,802.7813 Q49.3594,806.0781 50.5156,807.7813 Q51.5,809.2813 54.1094,809.2813 Q55.6875,809.2813 56.5625,808.4531 Q57.5469,807.5 57.6875,805.375 Q57.6875,805.0781 57.5156,804.9063 Q57.3906,804.75 57.1719,804.7344 Q55.9531,804.7344 55.7969,804.8594 Q55.625,805.0156 55.625,805.2813 Q55.5938,806.7656 54.9375,807.5781 Q54.3281,808.375 54.25,808.375 Q52.9219,808.375 52.1406,806.7813 Q51.3906,805.2344 51.3906,802.75 Q51.3906,800.125 52.3281,798.6719 Q53.1563,797.4219 54.4375,797.4219 Q54.4375,797.4219 54.7813,798.0469 Q55.4063,798.7188 55.5469,799.875 Q55.6563,800.4531 57.125,800.2344 Q57.6563,800.1563 57.625,799.7344 Q57.4531,798.2969 56.7344,797.4844 Q55.875,796.5156 54.3125,796.5156 Z "/><text fill="#000000" font-family="sans-serif" font-size="12" lengthAdjust="spacingAndGlyphs" textLength="67" x="75.25" y="808.6045">SingleBuffer</text><path d="M7,819 L7,818.5141 L17.0588,819.0821 L27.1176,819.611 L37.1765,819.0001 L47.2353,819.0565 L57.2941,819.2783 L67.3529,819.6825 L77.4118,818.9328 L87.4706,818.1005 L97.5294,819.2004 L107.5882,818.0061 L117.6471,819.1156 L127.7059,819.4252 L137.7647,819.826 L147.8235,818.9841 L157.8824,819.0631 L167.9412,819.8035 L178,819 " fill="#FEFECE" style="stroke: #A80036; stroke-width: 1.5;"/><polygon fill="none" points="14,829.0544,14,828.8656,15.2,829.1575,16.4,829.0645,17.6,828.8135,18.8,828.9025,20,829.0544,19.8026,829.0544,20.1866,830.2544,19.8651,831.4544,19.837,832.6544,19.9891,833.8544,20,835.0544,20,835.268,18.8,835.0134,17.6,835.0829,16.4,835.0885,15.2,835.0467,14,835.0544,14.2384,835.0544,13.8443,833.8544,14.0161,832.6544,14.1152,831.4544,13.8612,830.2544,14,829.0544" style="stroke: #C82930; stroke-width: 1.0;"/><text fill="#000000" font-family="sans-serif" font-size="11" lengthAdjust="spacingAndGlyphs" textLength="79" x="26" y="835.6919">data: dataType *</text><path d="M7,842.1089 L7,842.5779 L17.0588,841.2515 L27.1176,842.821 L37.1765,842.1893 L47.2353,841.7881 L57.2941,841.658 L67.3529,842.7048 L77.4118,841.477 L87.4706,842.3046 L97.5294,841.6493 L107.5882,841.5613 L117.6471,842.5439 L127.7059,842.3465 L137.7647,842.4512 L147.8235,841.5942 L157.8824,842.1823 L167.9412,842.5542 L178,842.1089 " fill="#FEFECE" style="stroke: #A80036; stroke-width: 1.5;"/><polygon fill="#84BE84" points="20.0248,855.9522,19.779,856.6196,19.1421,857.3814,18.3197,857.6587,17.6234,858.0756,17.0481,858.0199,16.3023,858.257,15.7018,857.7753,14.9681,857.1963,14.1539,856.5838,14.1117,855.8011,13.8629,854.9078,14.3017,854.348,14.3602,853.6414,14.7082,853.0095,15.1922,852.7409,15.941,852.4384,16.6046,852.2813,17.5958,852.2912,18.1094,852.4478,18.7166,852.8261,19.4888,853.2837,19.7594,854.1478,19.9538,854.8386,19.986,855.7381" style="stroke: #038048; stroke-width: 1.0;"/><text fill="#000000" font-family="sans-serif" font-size="11" lengthAdjust="spacingAndGlyphs" textLength="147" x="26" y="858.8008">setDataAt(int, dataType) : void</text><polygon fill="#84BE84" points="19.9116,871.1716,19.4726,872.0876,18.9506,872.3404,18.269,873.1028,17.662,873.1001,16.7774,873.0975,15.8761,872.866,15.2291,872.7996,14.8028,872.034,14.1004,871.5468,14.2093,870.7039,14.1122,869.9811,14.3219,869.4047,14.5339,868.3864,15.3364,867.7725,16.2996,867.5173,16.7973,867.2972,17.7774,867.4199,18.571,867.8335,19.3788,868.1982,19.7965,868.9648,20.0279,869.7198,20.0138,870.7713" style="stroke: #038048; stroke-width: 1.0;"/><text fill="#000000" font-family="sans-serif" font-size="11" lengthAdjust="spacingAndGlyphs" textLength="35" x="26" y="873.9097">clear();</text><!--class Coordinate--><polygon fill="#FEFECE" filter="url(#ffqt1op)" points="371,23,371,23.3804,381.3333,23.0756,391.6667,22.4527,402,22.8738,412.3333,23.1353,422.6667,23.5676,433,23.0323,443.3333,23.7026,453.6667,23.3047,464,23,463.595,23,464.1643,32.7772,464.5183,42.5544,464.1218,52.3317,463.4616,62.1089,463.3268,71.8861,463.3037,81.6633,464.7228,91.4406,464,101.2178,464,101.8424,453.6667,101.7195,443.3333,100.5758,433,100.8773,422.6667,101.3772,412.3333,101.0561,402,101.1492,391.6667,101.7555,381.3333,101.5942,371,101.2178,370.7058,101.2178,370.6046,91.4406,371.4013,81.6633,370.546,71.8861,371.1802,62.1089,371.2239,52.3317,370.5886,42.5544,370.5599,32.7772,371,23" style="stroke: #A80036; stroke-width: 1.5;"/><polygon fill="#ADD1B2" points="396.7179,41.6199,395.6397,44.0543,394.3428,45.4694,392.6449,47.4786,390.3811,48.3975,388.0508,49.5343,384.2058,50.5121,382.0253,49.3821,380.2623,48.2187,378.2111,46.5942,376.5445,44.7215,375.4266,41.2841,374.6219,39.0409,375.661,35.8407,376.2234,32.9007,378.0345,31.8029,380.864,29.5088,383.7726,28.5371,386.2988,28.2276,388.6403,28.8257,391.4112,28.6991,393.4011,31.566,395.7893,33.1063,396.961,35.7218,397.1052,39.5674" style="stroke: #A80036; stroke-width: 1.0;"/><path d="M385.5625,32.5156 Q382.8281,32.5156 381.75,34.1406 Q380.6094,35.8594 380.6094,38.7813 Q380.6094,42.0781 381.7656,43.7813 Q382.75,45.2813 385.3594,45.2813 Q386.9375,45.2813 387.8125,44.4531 Q388.7969,43.5 388.9375,41.375 Q388.9375,41.0781 388.7656,40.9063 Q388.6406,40.75 388.4219,40.7344 Q387.2031,40.7344 387.0469,40.8594 Q386.875,41.0156 386.875,41.2813 Q386.8438,42.7656 386.1875,43.5781 Q385.5781,44.375 385.5,44.375 Q384.1719,44.375 383.3906,42.7813 Q382.6406,41.2344 382.6406,38.75 Q382.6406,36.125 383.5781,34.6719 Q384.4063,33.4219 385.6875,33.4219 Q385.6875,33.4219 386.0313,34.0469 Q386.6563,34.7188 386.7969,35.875 Q386.9063,36.4531 388.375,36.2344 Q388.9063,36.1563 388.875,35.7344 Q388.7031,34.2969 387.9844,33.4844 Q387.125,32.5156 385.5625,32.5156 Z "/><text fill="#000000" font-family="sans-serif" font-size="12" lengthAdjust="spacingAndGlyphs" textLength="61" x="400" y="44.6045">Coordinate</text><path d="M372,55 L372,54.063 L382.1111,55.1801 L392.2222,54.1198 L402.3333,54.5112 L412.4444,54.8568 L422.5556,54.4311 L432.6667,55.5875 L442.7778,54.4274 L452.8889,54.7536 L463,55 " fill="#FEFECE" style="stroke: #A80036; stroke-width: 1.5;"/><polygon fill="none" points="379,65.0544,379,65.1839,380.2,65.2082,381.4,64.9501,382.6,65.2558,383.8,65.2133,385,65.0544,384.7517,65.0544,384.9071,66.2544,384.8602,67.4544,385.1811,68.6544,385.2082,69.8544,385,71.0544,385,70.9606,383.8,70.8922,382.6,70.8744,381.4,70.8514,380.2,71.2138,379,71.0544,378.9912,71.0544,379.233,69.8544,379.0416,68.6544,379.0235,67.4544,379.0025,66.2544,379,65.0544" style="stroke: #C82930; stroke-width: 1.0;"/><text fill="#000000" font-family="sans-serif" font-size="11" lengthAdjust="spacingAndGlyphs" textLength="23" x="391" y="71.6919">x: int</text><polygon fill="none" points="379,80.1633,379,80.2354,380.2,80.0223,381.4,80.226,382.6,80.3094,383.8,80.2385,385,80.1633,384.9448,80.1633,384.938,81.3633,385.1856,82.5633,385.0976,83.7633,384.9208,84.9633,385,86.1633,385,86.175,383.8,86.3896,382.6,86.3361,381.4,86.2689,380.2,86.2716,379,86.1633,378.8411,86.1633,378.7819,84.9633,378.7904,83.7633,378.9183,82.5633,379.206,81.3633,379,80.1633" style="stroke: #C82930; stroke-width: 1.0;"/><text fill="#000000" font-family="sans-serif" font-size="11" lengthAdjust="spacingAndGlyphs" textLength="23" x="391" y="86.8008">y: int</text><path d="M372,93.2178 L372,92.7617 L382.1111,93.575 L392.2222,93.6984 L402.3333,92.4796 L412.4444,93.0474 L422.5556,92.3853 L432.6667,92.9674 L442.7778,93.6592 L452.8889,94.0824 L463,93.2178 " fill="#FEFECE" style="stroke: #A80036; stroke-width: 1.5;"/><!--class Dimension--><polygon fill="#FEFECE" filter="url(#ffqt1op)" points="499,15.5,499,16.0515,509.3333,15.5894,519.6667,15.5894,530,15.6558,540.3333,15.5038,550.6667,15.0538,561,15.8083,571.3333,16.0334,581.6667,15.6892,592,15.5,591.6561,15.5,592.6589,25.8696,591.7832,36.2393,592.5202,46.6089,591.9846,56.9785,592.5128,67.3481,591.3125,77.7178,592.3209,88.0874,591.9846,98.457,592,108.8267,592,108.5526,581.6667,109.0499,571.3333,108.4703,561,108.759,550.6667,108.1569,540.3333,108.5355,530,109.0802,519.6667,108.4782,509.3333,109.335,499,108.8267,499.5764,108.8267,498.2918,98.457,498.4928,88.0874,499.6304,77.7178,498.9604,67.3481,498.3553,56.9785,498.2839,46.6089,499.2995,36.2393,499.2319,25.8696,499,15.5" style="stroke: #A80036; stroke-width: 1.5;"/><polygon fill="#ADD1B2" points="524.5182,33.7134,523.8084,37.5405,521.3493,38.9794,518.6734,41.1588,516.8246,41.5762,514.8993,42.0181,512.3844,42.3571,510.0513,41.9961,506.7695,40.0046,504.9797,37.6148,503.7901,35.504,503.1769,32.8981,503.4713,30.6849,503.9263,28.6814,504.3748,26.7947,506.233,23.4864,508.9267,22.0014,512.2715,20.9602,514.7101,21.1256,518.203,21.0544,521.1135,22.4236,522.5134,23.9343,523.758,26.5273,525.3825,29.0917,524.7123,32.6131" style="stroke: #A80036; stroke-width: 1.0;"/><path d="M513.5625,25.0156 Q510.8281,25.0156 509.75,26.6406 Q508.6094,28.3594 508.6094,31.2813 Q508.6094,34.5781 509.7656,36.2813 Q510.75,37.7813 513.3594,37.7813 Q514.9375,37.7813 515.8125,36.9531 Q516.7969,36 516.9375,33.875 Q516.9375,33.5781 516.7656,33.4063 Q516.6406,33.25 516.4219,33.2344 Q515.2031,33.2344 515.0469,33.3594 Q514.875,33.5156 514.875,33.7813 Q514.8438,35.2656 514.1875,36.0781 Q513.5781,36.875 513.5,36.875 Q512.1719,36.875 511.3906,35.2813 Q510.6406,33.7344 510.6406,31.25 Q510.6406,28.625 511.5781,27.1719 Q512.4063,25.9219 513.6875,25.9219 Q513.6875,25.9219 514.0313,26.5469 Q514.6563,27.2188 514.7969,28.375 Q514.9063,28.9531 516.375,28.7344 Q516.9063,28.6563 516.875,28.2344 Q516.7031,26.7969 515.9844,25.9844 Q515.125,25.0156 513.5625,25.0156 Z "/><text fill="#000000" font-family="sans-serif" font-size="12" lengthAdjust="spacingAndGlyphs" textLength="61" x="528" y="37.1045">Dimension</text><path d="M500,47.5 L500,46.7747 L510.1111,48.2033 L520.2222,48.0143 L530.3333,46.8071 L540.4444,47.2108 L550.5556,47.5616 L560.6667,48.3746 L570.7778,47.9449 L580.8889,47.5072 L591,47.5 " fill="#FEFECE" style="stroke: #A80036; stroke-width: 1.5;"/><polygon fill="none" points="507,57.5544,507,57.6475,508.2,57.6007,509.4,57.684,510.6,57.5725,511.8,57.4597,513,57.5544,512.804,57.5544,512.7808,58.7544,513.1947,59.9544,513.058,61.1544,513.2366,62.3544,513,63.5544,513,63.3602,511.8,63.3808,510.6,63.5622,509.4,63.3358,508.2,63.3506,507,63.5544,506.8833,63.5544,507.139,62.3544,507.2286,61.1544,507.1893,59.9544,507.2433,58.7544,507,57.5544" style="stroke: #C82930; stroke-width: 1.0;"/><text fill="#000000" font-family="sans-serif" font-size="11" lengthAdjust="spacingAndGlyphs" textLength="44" x="519" y="64.1919">width: int</text><polygon fill="none" points="507,72.6633,507,72.4406,508.2,72.7425,509.4,72.5701,510.6,72.4983,511.8,72.78,513,72.6633,512.9665,72.6633,512.8855,73.8633,512.8128,75.0633,513.2165,76.2633,512.8675,77.4633,513,78.6633,513,78.5516,511.8,78.8051,510.6,78.8606,509.4,78.529,508.2,78.8297,507,78.6633,507.1503,78.6633,507.0384,77.4633,506.9273,76.2633,506.7767,75.0633,507.2148,73.8633,507,72.6633" style="stroke: #C82930; stroke-width: 1.0;"/><text fill="#000000" font-family="sans-serif" font-size="11" lengthAdjust="spacingAndGlyphs" textLength="46" x="519" y="79.3008">height: int</text><path d="M500,85.7178 L500,85.4933 L510.1111,85.8512 L520.2222,86.2716 L530.3333,84.7648 L540.4444,86.1662 L550.5556,85.9414 L560.6667,86.6623 L570.7778,86.6063 L580.8889,85.3292 L591,85.7178 " fill="#FEFECE" style="stroke: #A80036; stroke-width: 1.5;"/><polygon fill="#84BE84" points="513.0751,99.6102,512.6517,100.3926,512.1842,101.0239,511.3793,101.626,510.6359,101.6397,509.6674,101.6648,508.9705,101.4005,508.164,101.2874,507.9635,100.7154,507.2539,100.0818,507.2241,99.4819,506.8614,98.7108,507.1971,97.842,507.5548,97.0862,508.2179,96.3766,509.069,95.8488,509.8141,95.8679,510.7904,95.9364,511.4232,96.2902,512.2036,96.4759,512.3877,97.1267,512.9199,97.7244,513.0875,98.3327,512.8993,98.9527" style="stroke: #038048; stroke-width: 1.0;"/><text fill="#000000" font-family="sans-serif" font-size="11" lengthAdjust="spacingAndGlyphs" textLength="61" x="519" y="102.4097">getSize(): int</text><path d="M205.91,125.915 L205.4446,125.4964 L199.2854,132.857 L193.7768,140.8029 L186.2192,146.9057 L179.8993,154.1218 L173.4063,161.1822 L168.103,169.3127 L161.6375,176.3979 L154.2392,182.644 L148.9069,190.7485 L141.8751,197.3242 L135.8431,204.7992 L128.938,211.489 " fill="none" style="stroke: #A80036; stroke-width: 1.0;"/><polygon fill="#A80036" points="120.089,221.328,120.1655,221.4993,121.8648,220.4737,123.7174,219.7915,125.4385,218.8149,127.2968,218.1453,129.0817,217.3117,129.0774,217.2304,127.9439,217.2186,126.819,217.3711,125.6986,217.6081,124.5506,217.3251,123.4328,217.6106,123.6042,217.6197,123.1973,216.4715,123.4246,215.3569,123.1701,214.2168,123.1223,213.0877,123.1339,211.9616,123.0258,211.9265,122.5511,213.8434,122.0187,215.7416,121.2271,217.5555,120.8467,219.5031,120.089,221.328" style="stroke: #A80036; stroke-width: 1.0;"/><path d="M123.4328,217.6106 L123.4869,217.6593 L124.4971,216.4158 L125.4071,215.082 L126.724,214.1144 L127.5236,212.6814 L128.783,211.662 " fill="#A80036" style="stroke: #A80036; stroke-width: 1.0;"/><polygon fill="#A80036" points="214.693,116.15,214.7031,116.1894,213.3121,116.5713,211.8535,116.6887,210.4837,117.1535,209.1564,117.7843,207.7067,117.9364,207.8415,117.956,207.725,119.3965,207.4228,120.8099,207.2627,122.244,207.0904,123.6764,206.6686,125.0724,206.6738,125.0925,208.1116,124.894,209.4273,124.2174,210.8952,124.1365,212.2716,123.6978,213.655,123.286,213.4197,123.2518,213.9092,121.8656,214.2942,120.4642,214.4908,119.0354,214.3555,117.5583,214.693,116.15" style="stroke: #A80036; stroke-width: 1.0;"/><path d="M262.5,129.589 L262.7816,129.589 L262.6118,136.2512 L262.3763,142.9134 L262.2677,149.5756 L262.2391,156.2378 L262.5,162.9 " fill="none" style="stroke: #A80036; stroke-width: 1.0;"/><polygon fill="#A80036" points="262.5,175.98,262.3412,175.9094,263.0934,174.0882,264.008,172.3391,264.9152,170.5868,265.5148,168.6977,266.5,166.98,266.4353,166.9153,265.5732,167.6532,264.7909,168.4709,264.1142,169.3942,263.2865,170.1665,262.5,170.98,262.3866,170.8666,261.5378,170.0178,260.9718,169.4518,260.1186,168.5986,259.2973,167.7773,258.5,166.98,258.5958,167.0226,259.0942,168.6885,259.9283,170.5037,260.9159,172.3871,261.6841,174.1729,262.5,175.98" style="stroke: #A80036; stroke-width: 1.0;"/><path d="M262.5,170.98 L262.6706,170.98 L262.7132,169.38 L262.6816,167.78 L262.2992,166.18 L262.313,164.58 L262.5,162.98 " fill="#A80036" style="stroke: #A80036; stroke-width: 1.0;"/><polygon fill="#A80036" points="262.5,116.15,262.3778,116.0685,261.8633,117.4589,260.7308,118.4372,260.1947,119.8131,259.145,120.8466,258.5,122.15,258.6157,122.2271,259.3758,123.4006,260.1661,124.5941,260.9657,125.7938,261.601,126.884,262.5,128.15,262.3438,128.0459,263.3833,127.0055,263.8997,125.6165,265.0366,124.641,265.7959,123.4139,266.5,122.15,266.5102,122.1568,265.7789,121.0026,265.0816,119.871,263.928,118.4353,263.1618,117.2579,262.5,116.15" style="stroke: #A80036; stroke-width: 1.0;"/><path d="M314.102,126.33 L314.024,126.2664 L320.3708,134.0309 L326.7116,141.7906 L333.7263,150.0993 L338.6747,156.7244 L344.992,164.4649 L351.3107,172.2065 L358.2785,180.477 L364.4707,188.1155 L371.0948,196.1059 L376.8546,203.3922 L383.257,211.202 " fill="none" style="stroke: #A80036; stroke-width: 1.0;"/><polygon fill="#A80036" points="391.508,221.328,391.4871,221.3223,390.9182,219.4075,390.2355,217.4617,389.89,215.6077,389.6466,213.7814,388.9228,211.8245,388.8336,211.8154,388.8419,212.9535,388.6142,214.0675,388.7919,215.2228,388.3218,216.3121,388.3492,217.4522,388.3674,217.6308,387.1993,217.0986,386.1046,217.2862,384.9545,216.9306,383.8711,217.2294,382.7215,216.8785,382.8008,217.0351,384.5642,217.9371,386.1801,218.5478,387.89,219.3441,389.699,220.336,391.508,221.328" style="stroke: #A80036; stroke-width: 1.0;"/><path d="M388.3492,217.4522 L388.2486,217.3702 L387.3889,216.2527 L386.3809,215.0143 L385.5271,213.9015 L384.2989,212.4837 L383.296,211.2495 " fill="#A80036" style="stroke: #A80036; stroke-width: 1.0;"/><polygon fill="#A80036" points="305.807,116.15,306.0516,116.1735,306.0116,117.592,306.0175,119.015,306.3932,120.4735,306.5993,121.9157,306.4958,123.3281,306.4397,123.1464,307.885,123.7888,309.1847,123.9594,310.5816,124.4452,312.0332,125.1084,313.3867,125.4532,313.5881,125.4725,313.2038,124.0132,313.1563,122.5862,313.0699,121.1555,312.6463,119.6925,312.6979,118.275,312.7689,118.5052,311.2839,117.7339,310.0086,117.6426,308.5627,116.9979,307.1184,116.3586,305.807,116.15" style="stroke: #A80036; stroke-width: 1.0;"/><path d="M296.154,330.154 L296.1933,330.1714 L301.0602,339.8495 L304.2464,348.7848 L309.0328,358.4274 L312.6939,367.5726 L316.7192,376.8788 L320.955,386.278 " fill="none" style="stroke: #A80036; stroke-width: 1.0;"/><polygon fill="none" points="327.47,383.702,327.397,383.6962,327.8572,387.9306,328.2378,392.1588,328.4957,396.3771,328.7658,400.5964,329.152,404.825,329.1843,404.8552,326.2338,401.7127,323.4573,398.7332,320.5903,395.6688,317.4517,392.3501,314.665,389.361,314.6197,389.2585,317.3071,388.4126,319.7458,387.0042,322.3906,386.0621,324.9237,384.8671,327.47,383.702" style="stroke: #A80036; stroke-width: 1.0;"/><path d="M408.574,284.521 L408.4862,284.4982 L405.0256,294.3699 L403.2241,304.6725 L401.1486,314.9039 L397.4644,324.7176 L395.4467,334.964 L393.3567,345.1917 L390.5072,355.2221 L388.238,365.4033 L384.9754,375.3264 L382.373,385.421 " fill="none" style="stroke: #A80036; stroke-width: 1.0;"/><polygon fill="none" points="389.125,387.269,389.0108,387.1924,386.6106,390.6853,384.4266,394.3232,382.0145,397.8082,379.6292,401.3111,377.323,404.867,377.4492,404.8775,377.0792,400.6524,376.6091,396.419,376.349,392.203,375.9469,387.9753,375.574,383.75,375.5124,383.5127,378.2416,384.2896,380.9388,384.9435,383.6714,385.7336,386.4138,386.5615,389.125,387.269" style="stroke: #A80036; stroke-width: 1.0;"/><path d="M92.5,304.567 L92.8854,304.567 L92.5922,314.0376 L92.6756,323.5081 L92.4905,332.9787 L93.4025,342.4492 L91.6936,351.9198 L93.4417,361.3903 L93.2839,370.8609 L92.1616,380.3314 L92.5,389.802 " fill="none" style="stroke: #A80036; stroke-width: 1.0;"/><polygon fill="none" points="85.5001,304.521,85.5343,304.533,86.8306,300.4967,88.2694,296.5103,89.6479,292.5028,91.2685,288.58,92.5,284.521,92.5637,284.5433,94.0375,288.5689,95.3007,292.5208,96.8648,296.5781,98.1136,300.5249,99.5001,304.52,99.5001,304.2889,96.7001,304.7141,93.9001,304.6944,91.1001,304.2975,88.3001,304.712,85.5001,304.521" style="stroke: #A80036; stroke-width: 1.0;"/><path d="M181.76,439.026 L181.812,439.1634 L184.1957,440.0359 L186.4905,440.6736 L189.0035,441.8879 L191.3185,442.5789 L193.7433,443.5601 L193.7203,443.531 L195.6722,445.1049 L197.6615,446.7261 L199.3748,447.9976 L201.3313,449.5772 L203.1513,450.9839 L203.3951,451.1292 L204.5109,453.1241 L205.7387,455.1858 L206.5672,457.0095 L208.0341,459.2136 L209.2986,461.2972 L209.4101,461.3158 L209.8961,463.964 L210.1754,466.5777 L210.5874,469.2135 L211.1317,471.8714 L211.5,474.5 L211.2117,474.4471 L211.3018,477.4189 L210.6242,480.2499 L210.0256,483.0953 L209.2203,485.9029 L208.8781,488.7954 L208.657,488.6471 L207.1801,490.7988 L205.8734,493.0647 L204.3253,495.1687 L203.319,497.636 L201.6105,499.6324 L201.6965,499.7607 L199.2363,500.8528 L197.1996,502.5771 L195.0883,504.1901 L192.9646,505.7845 L190.5944,507.011 L190.5083,506.7065 L187.8148,507.7732 L185.1297,508.8699 L182.2806,509.3863 L179.5826,510.4375 L176.727,510.931 " fill="none" style="stroke: #A80036; stroke-width: 1.0;"/><polygon fill="#A80036" points="176.727,438.069,176.6784,437.9988,178.366,439.2203,180.0211,440.3947,181.6498,441.5311,183.1986,442.5524,184.8212,443.68,184.8421,443.6942,184.2367,442.7799,183.5916,441.8386,182.7614,440.7715,182.3568,439.9939,181.639,439.0031,181.666,439.0429,182.6034,438.4094,183.5267,437.7551,184.3793,436.9971,185.3549,436.4197,186.3158,435.8208,186.3501,435.9671,184.4485,436.4856,182.4777,436.7092,180.5939,437.3037,178.6318,437.5642,176.727,438.069" style="stroke: #A80036; stroke-width: 1.0;"/><path d="M92.5,572.502 L92.3307,572.502 L92.5044,579.1428 L92.6149,585.7836 L92.6065,592.4244 L92.5212,599.0652 L92.5,605.706 " fill="none" style="stroke: #A80036; stroke-width: 1.0;"/><polygon fill="#A80036" points="92.5,618.908,92.6572,618.9779,93.3685,617.1384,94.0208,615.2728,95.1099,613.6013,95.4924,611.6157,96.5,609.908,96.5507,609.9587,95.6014,610.6094,94.9862,611.5942,94.2364,612.4444,93.134,612.942,92.5,613.908,92.5267,613.9347,91.6672,613.0752,90.9913,612.3993,90.069,611.477,89.249,610.657,88.5,609.908,88.6623,609.9801,89.4576,611.7781,90.3125,613.6025,91.0824,615.3891,91.5092,617.0232,92.5,618.908" style="stroke: #A80036; stroke-width: 1.0;"/><path d="M92.5,613.908 L92.2257,613.908 L92.2697,612.308 L92.2688,610.708 L92.6243,609.108 L92.4123,607.508 L92.5001,605.908 " fill="#A80036" style="stroke: #A80036; stroke-width: 1.0;"/><polygon fill="#A80036" points="92.5,559.119,92.351,559.0196,91.5852,560.2424,91.0351,561.609,90.0945,562.7154,89.2398,563.8789,88.5,565.119,88.5836,565.1747,89.4303,566.4058,90.1507,567.5528,90.8677,568.6975,91.6223,569.8672,92.5,571.119,92.3819,571.0403,93.4218,570.0002,94.3016,568.8534,95.0751,567.6357,95.4999,566.1856,96.5,565.119,96.5527,565.1541,95.839,564.0117,94.9505,562.7527,94.0234,561.4679,93.2153,560.2625,92.5,559.119" style="stroke: #A80036; stroke-width: 1.0;"/><path d="M92.5,740.657 L92.3815,740.657 L92.7579,747.2448 L92.753,753.8326 L92.7773,760.4204 L92.2272,767.0082 L92.5,773.596 " fill="none" style="stroke: #A80036; stroke-width: 1.0;"/><polygon fill="#A80036" points="92.5,786.8405,92.3235,786.7621,93.0717,784.939,94.3098,783.3338,95.0747,781.5182,95.83,779.6983,96.5,777.8405,96.3626,777.7031,95.6557,778.5962,94.8894,779.4299,94.1349,780.2754,93.4482,781.1887,92.5,781.8405,92.3309,781.6714,91.7486,781.0891,90.8778,780.2183,89.9501,779.2906,89.4285,778.769,88.5,777.8405,88.5548,777.8648,89.466,779.7143,90.2502,781.5072,91.1202,783.3384,91.6943,785.0379,92.5,786.8405" style="stroke: #A80036; stroke-width: 1.0;"/><path d="M92.5,781.8405 L92.2088,781.8405 L92.5469,780.2405 L92.8218,778.6405 L92.5794,777.0405 L92.6037,775.4405 L92.5001,773.8405 " fill="#A80036" style="stroke: #A80036; stroke-width: 1.0;"/><polygon fill="#A80036" points="92.5,727.219,92.6311,727.3064,91.772,728.467,90.9747,729.6688,90.1754,730.8693,89.4237,732.1015,88.5,733.219,88.3272,733.1038,89.2434,734.3813,90.0195,735.5653,90.9703,736.8658,91.8755,738.136,92.5,739.219,92.5501,739.2524,93.2312,737.9731,93.9532,736.7211,94.8522,735.5871,95.5375,734.3107,96.5,733.219,96.5149,733.2289,95.6667,731.9968,94.6993,730.6852,94.0114,729.5599,93.1133,728.2945,92.5,727.219" style="stroke: #A80036; stroke-width: 1.0;"/></g></svg>