<?xml version="1.0" encoding="UTF-8" standalone="yes"?><svg xmlns="http://www.w3.org/2000/svg" xmlns:xlink="http://www.w3.org/1999/xlink" height="622px" style="width:572px;height:622px;" version="1.1" viewBox="0 0 572 622" width="572px"><defs><filter height="300%" id="fdu3hj3" width="300%" x="-1" y="-1"><feGaussianBlur result="blurOut" stdDeviation="2.0"/><feColorMatrix in="blurOut" result="blurOut2" type="matrix" values="0 0 0 0 0 0 0 0 0 0 0 0 0 0 0 0 0 0 .4 0"/><feOffset dx="4.0" dy="4.0" in="blurOut2" result="blurOut3"/><feBlend in="SourceGraphic" in2="blurOut3" mode="normal"/></filter></defs><g><!--class Game--><rect fill="#FEFECE" filter="url(#fdu3hj3)" height="99.8203" style="stroke: #A80036; stroke-width: 1.5;" width="72" x="218.5" y="8"/><ellipse cx="236.2" cy="24" fill="#ADD1B2" rx="11" ry="11" style="stroke: #A80036; stroke-width: 1.0;"/><path d="M239.1731,29.6431 Q238.5921,29.9419 237.9529,30.0913 Q237.3138,30.2407 236.6082,30.2407 Q234.1014,30.2407 232.7815,28.5889 Q231.4617,26.937 231.4617,23.8159 Q231.4617,20.6865 232.7815,19.0347 Q234.1014,17.3828 236.6082,17.3828 Q237.3138,17.3828 237.9612,17.5322 Q238.6087,17.6816 239.1731,17.9805 L239.1731,20.7031 Q238.5423,20.1221 237.9488,19.8523 Q237.3553,19.5825 236.7244,19.5825 Q235.3797,19.5825 234.6949,20.6492 Q234.0101,21.7158 234.0101,23.8159 Q234.0101,25.9077 234.6949,26.9744 Q235.3797,28.041 236.7244,28.041 Q237.3553,28.041 237.9488,27.7712 Q238.5423,27.5015 239.1731,26.9204 Z "/><text fill="#000000" font-family="sans-serif" font-size="12" lengthAdjust="spacingAndGlyphs" textLength="34" x="250.8" y="28.5352">Game</text><line style="stroke: #A80036; stroke-width: 1.5;" x1="219.5" x2="289.5" y1="40" y2="40"/><line style="stroke: #A80036; stroke-width: 1.5;" x1="219.5" x2="289.5" y1="48" y2="48"/><ellipse cx="229.5" cy="59.9775" fill="#84BE84" rx="3" ry="3" style="stroke: #038048; stroke-width: 1.0;"/><text fill="#000000" font-family="sans-serif" font-size="11" font-style="italic" lengthAdjust="spacingAndGlyphs" textLength="25" x="238.5" y="62.6348">init()</text><ellipse cx="229.5" cy="72.9326" fill="#84BE84" rx="3" ry="3" style="stroke: #038048; stroke-width: 1.0;"/><text fill="#000000" font-family="sans-serif" font-size="11" font-style="italic" lengthAdjust="spacingAndGlyphs" textLength="45" x="238.5" y="75.5898">update()</text><ellipse cx="229.5" cy="85.8877" fill="#84BE84" rx="3" ry="3" style="stroke: #038048; stroke-width: 1.0;"/><text fill="#000000" font-family="sans-serif" font-size="11" font-style="italic" lengthAdjust="spacingAndGlyphs" textLength="44" x="238.5" y="88.5449">render()</text><ellipse cx="229.5" cy="98.8428" fill="#84BE84" rx="3" ry="3" style="stroke: #038048; stroke-width: 1.0;"/><text fill="#000000" font-family="sans-serif" font-size="11" font-style="italic" lengthAdjust="spacingAndGlyphs" textLength="46" x="238.5" y="101.5">release()</text><!--class Tetris--><rect fill="#FEFECE" filter="url(#fdu3hj3)" height="73.9102" style="stroke: #A80036; stroke-width: 1.5;" width="179" x="165" y="168"/><ellipse cx="233.75" cy="184" fill="#ADD1B2" rx="11" ry="11" style="stroke: #A80036; stroke-width: 1.0;"/><path d="M236.7231,189.6431 Q236.1421,189.9419 235.5029,190.0913 Q234.8638,190.2407 234.1582,190.2407 Q231.6514,190.2407 230.3315,188.5889 Q229.0117,186.937 229.0117,183.8159 Q229.0117,180.6865 230.3315,179.0347 Q231.6514,177.3828 234.1582,177.3828 Q234.8638,177.3828 235.5112,177.5322 Q236.1587,177.6816 236.7231,177.9805 L236.7231,180.7031 Q236.0923,180.1221 235.4988,179.8523 Q234.9053,179.5825 234.2744,179.5825 Q232.9297,179.5825 232.2449,180.6492 Q231.5601,181.7158 231.5601,183.8159 Q231.5601,185.9077 232.2449,186.9744 Q232.9297,188.041 234.2744,188.041 Q234.9053,188.041 235.4988,187.7712 Q236.0923,187.5015 236.7231,186.9204 Z "/><text fill="#000000" font-family="sans-serif" font-size="12" lengthAdjust="spacingAndGlyphs" textLength="33" x="254.25" y="188.5352">Tetris</text><line style="stroke: #A80036; stroke-width: 1.5;" x1="166" x2="343" y1="200" y2="200"/><rect fill="none" height="6" style="stroke: #C82930; stroke-width: 1.0;" width="6" x="173" y="208.9775"/><text fill="#000000" font-family="sans-serif" font-size="11" lengthAdjust="spacingAndGlyphs" textLength="153" x="185" y="214.6348">tetromino: TetrisComponent</text><rect fill="none" height="6" style="stroke: #C82930; stroke-width: 1.0;" width="6" x="173" y="221.9326"/><text fill="#000000" font-family="sans-serif" font-size="11" lengthAdjust="spacingAndGlyphs" textLength="136" x="185" y="227.5898">tetrion: TetrisComponent</text><line style="stroke: #A80036; stroke-width: 1.5;" x1="166" x2="343" y1="233.9102" y2="233.9102"/><!--class TetrisComponent--><rect fill="#FEFECE" filter="url(#fdu3hj3)" height="125.7305" style="stroke: #A80036; stroke-width: 1.5;" width="161" x="174" y="302"/><ellipse cx="202.5" cy="318" fill="#ADD1B2" rx="11" ry="11" style="stroke: #A80036; stroke-width: 1.0;"/><path d="M205.4731,323.6431 Q204.8921,323.9419 204.2529,324.0913 Q203.6138,324.2407 202.9082,324.2407 Q200.4014,324.2407 199.0815,322.5889 Q197.7617,320.937 197.7617,317.8159 Q197.7617,314.6865 199.0815,313.0347 Q200.4014,311.3828 202.9082,311.3828 Q203.6138,311.3828 204.2612,311.5322 Q204.9087,311.6816 205.4731,311.9805 L205.4731,314.7031 Q204.8423,314.1221 204.2488,313.8523 Q203.6553,313.5825 203.0244,313.5825 Q201.6797,313.5825 200.9949,314.6492 Q200.3101,315.7158 200.3101,317.8159 Q200.3101,319.9077 200.9949,320.9744 Q201.6797,322.041 203.0244,322.041 Q203.6553,322.041 204.2488,321.7712 Q204.8423,321.5015 205.4731,320.9204 Z "/><text fill="#000000" font-family="sans-serif" font-size="12" lengthAdjust="spacingAndGlyphs" textLength="99" x="219.5" y="322.5352">TetrisComponent</text><line style="stroke: #A80036; stroke-width: 1.5;" x1="175" x2="334" y1="334" y2="334"/><polygon fill="none" points="185,340.9775,189,344.9775,185,348.9775,181,344.9775" style="stroke: #B38D22; stroke-width: 1.0;"/><text fill="#000000" font-family="sans-serif" font-size="11" lengthAdjust="spacingAndGlyphs" textLength="110" x="194" y="348.6348">position: Coordinate</text><polygon fill="none" points="185,353.9326,189,357.9326,185,361.9326,181,357.9326" style="stroke: #B38D22; stroke-width: 1.0;"/><text fill="#000000" font-family="sans-serif" font-size="11" lengthAdjust="spacingAndGlyphs" textLength="135" x="194" y="361.5898">boundingBox: Dimension</text><polygon fill="none" points="185,366.8877,189,370.8877,185,374.8877,181,370.8877" style="stroke: #B38D22; stroke-width: 1.0;"/><text fill="#000000" font-family="sans-serif" font-size="11" lengthAdjust="spacingAndGlyphs" textLength="86" x="194" y="374.5449">data: dataType *</text><polygon fill="none" points="185,379.8428,189,383.8428,185,387.8428,181,383.8428" style="stroke: #B38D22; stroke-width: 1.0;"/><text fill="#000000" font-family="sans-serif" font-size="11" lengthAdjust="spacingAndGlyphs" text-decoration="underline" textLength="75" x="194" y="387.5">canvas: Buffer</text><line style="stroke: #000000; stroke-width: 1.0;" x1="194" x2="269" y1="389.5" y2="389.5"/><line style="stroke: #A80036; stroke-width: 1.5;" x1="175" x2="334" y1="393.8203" y2="393.8203"/><ellipse cx="185" cy="405.7979" fill="#84BE84" rx="3" ry="3" style="stroke: #038048; stroke-width: 1.0;"/><text fill="#000000" font-family="sans-serif" font-size="11" lengthAdjust="spacingAndGlyphs" textLength="72" x="194" y="408.4551">sketch(): void</text><ellipse cx="185" cy="418.7529" fill="#84BE84" rx="3" ry="3" style="stroke: #038048; stroke-width: 1.0;"/><text fill="#000000" font-family="sans-serif" font-size="11" font-style="italic" lengthAdjust="spacingAndGlyphs" textLength="74" x="194" y="421.4102">update(): void</text><!--class Tetromino--><rect fill="#FEFECE" filter="url(#fdu3hj3)" height="125.7305" style="stroke: #A80036; stroke-width: 1.5;" width="145" x="6" y="488"/><ellipse cx="45.3" cy="504" fill="#ADD1B2" rx="11" ry="11" style="stroke: #A80036; stroke-width: 1.0;"/><path d="M48.2731,509.6431 Q47.6921,509.9419 47.0529,510.0913 Q46.4138,510.2407 45.7082,510.2407 Q43.2014,510.2407 41.8815,508.5889 Q40.5617,506.937 40.5617,503.8159 Q40.5617,500.6865 41.8815,499.0347 Q43.2014,497.3828 45.7082,497.3828 Q46.4138,497.3828 47.0612,497.5322 Q47.7087,497.6816 48.2731,497.9805 L48.2731,500.7031 Q47.6423,500.1221 47.0488,499.8523 Q46.4553,499.5825 45.8244,499.5825 Q44.4797,499.5825 43.7949,500.6492 Q43.1101,501.7158 43.1101,503.8159 Q43.1101,505.9077 43.7949,506.9744 Q44.4797,508.041 45.8244,508.041 Q46.4553,508.041 47.0488,507.7712 Q47.6423,507.5015 48.2731,506.9204 Z "/><text fill="#000000" font-family="sans-serif" font-size="12" lengthAdjust="spacingAndGlyphs" textLength="59" x="64.7" y="508.5352">Tetromino</text><line style="stroke: #A80036; stroke-width: 1.5;" x1="7" x2="150" y1="520" y2="520"/><rect fill="none" height="6" style="stroke: #C82930; stroke-width: 1.0;" width="6" x="14" y="528.9775"/><text fill="#000000" font-family="sans-serif" font-size="11" lengthAdjust="spacingAndGlyphs" textLength="97" x="26" y="534.6348">color: enum Color</text><rect fill="none" height="6" style="stroke: #C82930; stroke-width: 1.0;" width="6" x="14" y="541.9326"/><text fill="#000000" font-family="sans-serif" font-size="11" lengthAdjust="spacingAndGlyphs" textLength="88" x="26" y="547.5898">type: enum Type</text><line style="stroke: #A80036; stroke-width: 1.5;" x1="7" x2="150" y1="553.9102" y2="553.9102"/><rect fill="#F24D5C" height="6" style="stroke: #C82930; stroke-width: 1.0;" width="6" x="14" y="562.8877"/><text fill="#000000" font-family="sans-serif" font-size="11" lengthAdjust="spacingAndGlyphs" textLength="119" x="26" y="568.5449">move(enum Direction)</text><rect fill="#F24D5C" height="6" style="stroke: #C82930; stroke-width: 1.0;" width="6" x="14" y="575.8428"/><text fill="#000000" font-family="sans-serif" font-size="11" lengthAdjust="spacingAndGlyphs" textLength="60" x="26" y="581.5">hardDrop()</text><rect fill="#F24D5C" height="6" style="stroke: #C82930; stroke-width: 1.0;" width="6" x="14" y="588.7979"/><text fill="#000000" font-family="sans-serif" font-size="11" lengthAdjust="spacingAndGlyphs" textLength="30" x="26" y="594.4551">lock()</text><rect fill="#F24D5C" height="6" style="stroke: #C82930; stroke-width: 1.0;" width="6" x="14" y="601.7529"/><text fill="#000000" font-family="sans-serif" font-size="11" lengthAdjust="spacingAndGlyphs" textLength="40" x="26" y="607.4102">rotate()</text><!--class Tetrion--><rect fill="#FEFECE" filter="url(#fdu3hj3)" height="73.9102" style="stroke: #A80036; stroke-width: 1.5;" width="136" x="186.5" y="514"/><ellipse cx="229.85" cy="530" fill="#ADD1B2" rx="11" ry="11" style="stroke: #A80036; stroke-width: 1.0;"/><path d="M232.8231,535.6431 Q232.2421,535.9419 231.6029,536.0913 Q230.9638,536.2407 230.2582,536.2407 Q227.7514,536.2407 226.4315,534.5889 Q225.1117,532.937 225.1117,529.8159 Q225.1117,526.6865 226.4315,525.0347 Q227.7514,523.3828 230.2582,523.3828 Q230.9638,523.3828 231.6112,523.5322 Q232.2587,523.6816 232.8231,523.9805 L232.8231,526.7031 Q232.1923,526.1221 231.5988,525.8523 Q231.0053,525.5825 230.3744,525.5825 Q229.0297,525.5825 228.3449,526.6492 Q227.6601,527.7158 227.6601,529.8159 Q227.6601,531.9077 228.3449,532.9744 Q229.0297,534.041 230.3744,534.041 Q231.0053,534.041 231.5988,533.7712 Q232.1923,533.5015 232.8231,532.9204 Z "/><text fill="#000000" font-family="sans-serif" font-size="12" lengthAdjust="spacingAndGlyphs" textLength="41" x="250.15" y="534.5352">Tetrion</text><line style="stroke: #A80036; stroke-width: 1.5;" x1="187.5" x2="321.5" y1="546" y2="546"/><line style="stroke: #A80036; stroke-width: 1.5;" x1="187.5" x2="321.5" y1="554" y2="554"/><rect fill="#F24D5C" height="6" style="stroke: #C82930; stroke-width: 1.0;" width="6" x="194.5" y="562.9775"/><text fill="#000000" font-family="sans-serif" font-size="11" lengthAdjust="spacingAndGlyphs" textLength="88" x="206.5" y="568.6348">clearLine() : void</text><rect fill="#F24D5C" height="6" style="stroke: #C82930; stroke-width: 1.0;" width="6" x="194.5" y="575.9326"/><text fill="#000000" font-family="sans-serif" font-size="11" lengthAdjust="spacingAndGlyphs" textLength="110" x="206.5" y="581.5898">fix(Tetromino) : void</text><!--class Buffer--><rect fill="#FEFECE" filter="url(#fdu3hj3)" height="99.8203" style="stroke: #A80036; stroke-width: 1.5;" width="205" x="358" y="501"/><ellipse cx="439.25" cy="517" fill="#ADD1B2" rx="11" ry="11" style="stroke: #A80036; stroke-width: 1.0;"/><path d="M442.2231,522.6431 Q441.6421,522.9419 441.0029,523.0913 Q440.3638,523.2407 439.6582,523.2407 Q437.1514,523.2407 435.8315,521.5889 Q434.5117,519.937 434.5117,516.8159 Q434.5117,513.6865 435.8315,512.0347 Q437.1514,510.3828 439.6582,510.3828 Q440.3638,510.3828 441.0112,510.5322 Q441.6587,510.6816 442.2231,510.9805 L442.2231,513.7031 Q441.5923,513.1221 440.9988,512.8523 Q440.4053,512.5825 439.7744,512.5825 Q438.4297,512.5825 437.7449,513.6492 Q437.0601,514.7158 437.0601,516.8159 Q437.0601,518.9077 437.7449,519.9744 Q438.4297,521.041 439.7744,521.041 Q440.4053,521.041 440.9988,520.7712 Q441.5923,520.5015 442.2231,519.9204 Z "/><text fill="#000000" font-family="sans-serif" font-size="12" lengthAdjust="spacingAndGlyphs" textLength="34" x="459.75" y="521.5352">Buffer</text><line style="stroke: #A80036; stroke-width: 1.5;" x1="359" x2="562" y1="533" y2="533"/><rect fill="none" height="6" style="stroke: #C82930; stroke-width: 1.0;" width="6" x="366" y="541.9775"/><text fill="#000000" font-family="sans-serif" font-size="11" lengthAdjust="spacingAndGlyphs" textLength="65" x="378" y="547.6348">front: bool *</text><rect fill="none" height="6" style="stroke: #C82930; stroke-width: 1.0;" width="6" x="366" y="554.9326"/><text fill="#000000" font-family="sans-serif" font-size="11" lengthAdjust="spacingAndGlyphs" textLength="63" x="378" y="560.5898">back: bool *</text><line style="stroke: #A80036; stroke-width: 1.5;" x1="359" x2="562" y1="566.9102" y2="566.9102"/><ellipse cx="369" cy="578.8877" fill="#84BE84" rx="3" ry="3" style="stroke: #038048; stroke-width: 1.0;"/><text fill="#000000" font-family="sans-serif" font-size="11" lengthAdjust="spacingAndGlyphs" textLength="57" x="378" y="581.5449">flip() : void</text><ellipse cx="369" cy="591.8428" fill="#84BE84" rx="3" ry="3" style="stroke: #038048; stroke-width: 1.0;"/><text fill="#000000" font-family="sans-serif" font-size="11" lengthAdjust="spacingAndGlyphs" textLength="179" x="378" y="594.5">setData(pos: int, data: bool) : void</text><!--class Coordinate--><rect fill="#FEFECE" filter="url(#fdu3hj3)" height="73.9102" style="stroke: #A80036; stroke-width: 1.5;" width="95" x="44" y="328"/><ellipse cx="59" cy="344" fill="#ADD1B2" rx="11" ry="11" style="stroke: #A80036; stroke-width: 1.0;"/><path d="M61.9731,349.6431 Q61.3921,349.9419 60.7529,350.0913 Q60.1138,350.2407 59.4082,350.2407 Q56.9014,350.2407 55.5815,348.5889 Q54.2617,346.937 54.2617,343.8159 Q54.2617,340.6865 55.5815,339.0347 Q56.9014,337.3828 59.4082,337.3828 Q60.1138,337.3828 60.7612,337.5322 Q61.4087,337.6816 61.9731,337.9805 L61.9731,340.7031 Q61.3423,340.1221 60.7488,339.8523 Q60.1553,339.5825 59.5244,339.5825 Q58.1797,339.5825 57.4949,340.6492 Q56.8101,341.7158 56.8101,343.8159 Q56.8101,345.9077 57.4949,346.9744 Q58.1797,348.041 59.5244,348.041 Q60.1553,348.041 60.7488,347.7712 Q61.3423,347.5015 61.9731,346.9204 Z "/><text fill="#000000" font-family="sans-serif" font-size="12" lengthAdjust="spacingAndGlyphs" textLength="63" x="73" y="348.5352">Coordinate</text><line style="stroke: #A80036; stroke-width: 1.5;" x1="45" x2="138" y1="360" y2="360"/><rect fill="none" height="6" style="stroke: #C82930; stroke-width: 1.0;" width="6" x="52" y="368.9775"/><text fill="#000000" font-family="sans-serif" font-size="11" lengthAdjust="spacingAndGlyphs" textLength="27" x="64" y="374.6348">x: int</text><rect fill="none" height="6" style="stroke: #C82930; stroke-width: 1.0;" width="6" x="52" y="381.9326"/><text fill="#000000" font-family="sans-serif" font-size="11" lengthAdjust="spacingAndGlyphs" textLength="26" x="64" y="387.5898">y: int</text><line style="stroke: #A80036; stroke-width: 1.5;" x1="45" x2="138" y1="393.9102" y2="393.9102"/><!--class Dimension--><rect fill="#FEFECE" filter="url(#fdu3hj3)" height="86.8652" style="stroke: #A80036; stroke-width: 1.5;" width="92" x="370.5" y="321.5"/><ellipse cx="385.5" cy="337.5" fill="#ADD1B2" rx="11" ry="11" style="stroke: #A80036; stroke-width: 1.0;"/><path d="M388.4731,343.1431 Q387.8921,343.4419 387.2529,343.5913 Q386.6138,343.7407 385.9082,343.7407 Q383.4014,343.7407 382.0815,342.0889 Q380.7617,340.437 380.7617,337.3159 Q380.7617,334.1865 382.0815,332.5347 Q383.4014,330.8828 385.9082,330.8828 Q386.6138,330.8828 387.2612,331.0322 Q387.9087,331.1816 388.4731,331.4805 L388.4731,334.2031 Q387.8423,333.6221 387.2488,333.3523 Q386.6553,333.0825 386.0244,333.0825 Q384.6797,333.0825 383.9949,334.1492 Q383.3101,335.2158 383.3101,337.3159 Q383.3101,339.4077 383.9949,340.4744 Q384.6797,341.541 386.0244,341.541 Q386.6553,341.541 387.2488,341.2712 Q387.8423,341.0015 388.4731,340.4204 Z "/><text fill="#000000" font-family="sans-serif" font-size="12" lengthAdjust="spacingAndGlyphs" textLength="60" x="399.5" y="342.0352">Dimension</text><line style="stroke: #A80036; stroke-width: 1.5;" x1="371.5" x2="461.5" y1="353.5" y2="353.5"/><rect fill="none" height="6" style="stroke: #C82930; stroke-width: 1.0;" width="6" x="378.5" y="362.4775"/><text fill="#000000" font-family="sans-serif" font-size="11" lengthAdjust="spacingAndGlyphs" textLength="49" x="390.5" y="368.1348">width: int</text><rect fill="none" height="6" style="stroke: #C82930; stroke-width: 1.0;" width="6" x="378.5" y="375.4326"/><text fill="#000000" font-family="sans-serif" font-size="11" lengthAdjust="spacingAndGlyphs" textLength="54" x="390.5" y="381.0898">height: int</text><line style="stroke: #A80036; stroke-width: 1.5;" x1="371.5" x2="461.5" y1="387.4102" y2="387.4102"/><ellipse cx="381.5" cy="399.3877" fill="#84BE84" rx="3" ry="3" style="stroke: #038048; stroke-width: 1.0;"/><text fill="#000000" font-family="sans-serif" font-size="11" lengthAdjust="spacingAndGlyphs" textLength="66" x="390.5" y="402.0449">getSize(): int</text><path d="M254.5,128.409 C254.5,142.035 254.5,155.808 254.5,167.796 " fill="none" style="stroke: #A80036; stroke-width: 1.0;"/><polygon fill="none" points="247.5,128.09,254.5,108.09,261.5,128.09,247.5,128.09" style="stroke: #A80036; stroke-width: 1.0;"/><path d="M254.5,242.248 C254.5,258.404 254.5,277.974 254.5,296.654 " fill="none" style="stroke: #A80036; stroke-width: 1.0;"/><polygon fill="#A80036" points="254.5,301.896,258.5,292.896,254.5,296.896,250.5,292.896,254.5,301.896" style="stroke: #A80036; stroke-width: 1.0;"/><path d="M181.018,442.822 C171.358,452.921 161.458,463.271 151.801,473.368 " fill="none" style="stroke: #A80036; stroke-width: 1.0;"/><polygon fill="#A80036" points="137.882,487.919,146.9935,484.1801,141.3381,484.3058,141.2124,478.6503,137.882,487.919" style="stroke: #A80036; stroke-width: 1.0;"/><line style="stroke: #A80036; stroke-width: 1.0;" x1="141.3381" x2="151.7065" y1="484.3058" y2="473.4665"/><polygon fill="none" points="176.277,437.652,195.16,428.037,186.394,447.329,176.277,437.652" style="stroke: #A80036; stroke-width: 1.0;"/><path d="M254.5,448.336 C254.5,463.706 254.5,479.441 254.5,493.797 " fill="none" style="stroke: #A80036; stroke-width: 1.0;"/><polygon fill="#A80036" points="254.5,513.971,258.5,504.971,254.5,508.971,250.5,504.971,254.5,513.971" style="stroke: #A80036; stroke-width: 1.0;"/><line style="stroke: #A80036; stroke-width: 1.0;" x1="254.5" x2="254.5" y1="508.971" y2="493.971"/><polygon fill="none" points="247.5,448.038,254.5,428.037,261.5,448.037,247.5,448.038" style="stroke: #A80036; stroke-width: 1.0;"/><path d="M333.719,436.759 C357.627,458.113 383.342,481.082 405.323,500.715 " fill="none" style="stroke: #A80036; stroke-width: 1.0;"/><polygon fill="#A80036" points="323.955,428.037,325.7653,435.0172,332.9048,436.0308,331.0945,429.0506,323.955,428.037" style="stroke: #A80036; stroke-width: 1.0;"/><path d="M139.254,365 C146.385,365 153.517,365 160.648,365 " fill="none" style="stroke: #A80036; stroke-width: 1.0;"/><polygon fill="#A80036" points="173.918,365,167.918,361,161.918,365,167.918,369,173.918,365" style="stroke: #A80036; stroke-width: 1.0;"/><path d="M348.405,365 C355.751,365 363.096,365 370.442,365 " fill="none" style="stroke: #A80036; stroke-width: 1.0;"/><polygon fill="#A80036" points="335.184,365,341.184,369,347.184,365,341.184,361,335.184,365" style="stroke: #A80036; stroke-width: 1.0;"/></g></svg>